<mxfile host="app.diagrams.net" modified="2024-06-19T14:07:43.064Z" agent="Mozilla/5.0 (Windows NT 10.0; Win64; x64) AppleWebKit/537.36 (KHTML, like Gecko) Chrome/121.0.0.0 Safari/537.36" etag="_jdstt1LBhGIuqYWXRkX" version="24.5.5" type="device">
  <diagram name="Página-1" id="bDUrZ__02Z17PxG2ljrx">
    <mxGraphModel dx="1434" dy="782" grid="1" gridSize="10" guides="1" tooltips="1" connect="1" arrows="1" fold="1" page="1" pageScale="1" pageWidth="3300" pageHeight="4681" math="0" shadow="0">
      <root>
        <mxCell id="0" />
        <mxCell id="1" parent="0" />
        <mxCell id="ClEjiNmjSm3RQ9jGUG7P-9" value="" style="rounded=1;whiteSpace=wrap;html=1;fillColor=#dae8fc;strokeColor=#6c8ebf;shadow=1;" parent="1" vertex="1">
          <mxGeometry x="1050" y="40" width="320" height="620" as="geometry" />
        </mxCell>
        <mxCell id="ClEjiNmjSm3RQ9jGUG7P-11" value="Lista de Pedidos" style="ellipse;whiteSpace=wrap;html=1;" parent="1" vertex="1">
          <mxGeometry x="1154.5" y="110" width="141" height="80" as="geometry" />
        </mxCell>
        <mxCell id="ClEjiNmjSm3RQ9jGUG7P-24" value="" style="rounded=1;whiteSpace=wrap;html=1;fillColor=#dae8fc;strokeColor=#6c8ebf;shadow=1;glass=0;" parent="1" vertex="1">
          <mxGeometry x="400" y="40" width="330" height="620" as="geometry" />
        </mxCell>
        <mxCell id="ClEjiNmjSm3RQ9jGUG7P-26" value="Inicio" style="ellipse;whiteSpace=wrap;html=1;" parent="1" vertex="1">
          <mxGeometry x="485" y="110" width="160" height="80" as="geometry" />
        </mxCell>
        <mxCell id="ClEjiNmjSm3RQ9jGUG7P-27" value="Cliente" style="rounded=0;whiteSpace=wrap;html=1;shadow=1;" parent="1" vertex="1">
          <mxGeometry x="500" y="390" width="130" height="20" as="geometry" />
        </mxCell>
        <mxCell id="ClEjiNmjSm3RQ9jGUG7P-28" value="Fornecedor" style="rounded=0;whiteSpace=wrap;html=1;shadow=1;" parent="1" vertex="1">
          <mxGeometry x="500" y="430" width="130" height="20" as="geometry" />
        </mxCell>
        <mxCell id="ClEjiNmjSm3RQ9jGUG7P-29" value="Matéria-prima" style="rounded=0;whiteSpace=wrap;html=1;shadow=1;" parent="1" vertex="1">
          <mxGeometry x="500" y="470" width="130" height="20" as="geometry" />
        </mxCell>
        <mxCell id="ClEjiNmjSm3RQ9jGUG7P-30" value="Setores" style="rounded=0;whiteSpace=wrap;html=1;shadow=1;" parent="1" vertex="1">
          <mxGeometry x="500" y="510" width="130" height="20" as="geometry" />
        </mxCell>
        <mxCell id="ClEjiNmjSm3RQ9jGUG7P-31" value="Pedido" style="rounded=0;whiteSpace=wrap;html=1;shadow=1;" parent="1" vertex="1">
          <mxGeometry x="500" y="550" width="130" height="20" as="geometry" />
        </mxCell>
        <mxCell id="ClEjiNmjSm3RQ9jGUG7P-46" value="" style="shape=table;startSize=0;container=1;collapsible=0;childLayout=tableLayout;fontSize=16;" parent="1" vertex="1">
          <mxGeometry x="1100" y="290" width="250" height="60" as="geometry" />
        </mxCell>
        <mxCell id="ClEjiNmjSm3RQ9jGUG7P-47" value="" style="shape=tableRow;horizontal=0;startSize=0;swimlaneHead=0;swimlaneBody=0;strokeColor=inherit;top=0;left=0;bottom=0;right=0;collapsible=0;dropTarget=0;fillColor=none;points=[[0,0.5],[1,0.5]];portConstraint=eastwest;fontSize=16;" parent="ClEjiNmjSm3RQ9jGUG7P-46" vertex="1">
          <mxGeometry width="250" height="20" as="geometry" />
        </mxCell>
        <mxCell id="ClEjiNmjSm3RQ9jGUG7P-48" value="prod" style="shape=partialRectangle;html=1;whiteSpace=wrap;connectable=0;strokeColor=inherit;overflow=hidden;fillColor=none;top=0;left=0;bottom=0;right=0;pointerEvents=1;fontSize=16;" parent="ClEjiNmjSm3RQ9jGUG7P-47" vertex="1">
          <mxGeometry width="83" height="20" as="geometry">
            <mxRectangle width="83" height="20" as="alternateBounds" />
          </mxGeometry>
        </mxCell>
        <mxCell id="ClEjiNmjSm3RQ9jGUG7P-49" value="quant" style="shape=partialRectangle;html=1;whiteSpace=wrap;connectable=0;strokeColor=inherit;overflow=hidden;fillColor=none;top=0;left=0;bottom=0;right=0;pointerEvents=1;fontSize=16;" parent="ClEjiNmjSm3RQ9jGUG7P-47" vertex="1">
          <mxGeometry x="83" width="84" height="20" as="geometry">
            <mxRectangle width="84" height="20" as="alternateBounds" />
          </mxGeometry>
        </mxCell>
        <mxCell id="ClEjiNmjSm3RQ9jGUG7P-50" value="valor" style="shape=partialRectangle;html=1;whiteSpace=wrap;connectable=0;strokeColor=inherit;overflow=hidden;fillColor=none;top=0;left=0;bottom=0;right=0;pointerEvents=1;fontSize=16;" parent="ClEjiNmjSm3RQ9jGUG7P-47" vertex="1">
          <mxGeometry x="167" width="83" height="20" as="geometry">
            <mxRectangle width="83" height="20" as="alternateBounds" />
          </mxGeometry>
        </mxCell>
        <mxCell id="ClEjiNmjSm3RQ9jGUG7P-51" value="" style="shape=tableRow;horizontal=0;startSize=0;swimlaneHead=0;swimlaneBody=0;strokeColor=inherit;top=0;left=0;bottom=0;right=0;collapsible=0;dropTarget=0;fillColor=none;points=[[0,0.5],[1,0.5]];portConstraint=eastwest;fontSize=16;" parent="ClEjiNmjSm3RQ9jGUG7P-46" vertex="1">
          <mxGeometry y="20" width="250" height="20" as="geometry" />
        </mxCell>
        <mxCell id="ClEjiNmjSm3RQ9jGUG7P-52" value="" style="shape=partialRectangle;html=1;whiteSpace=wrap;connectable=0;strokeColor=inherit;overflow=hidden;fillColor=none;top=0;left=0;bottom=0;right=0;pointerEvents=1;fontSize=16;" parent="ClEjiNmjSm3RQ9jGUG7P-51" vertex="1">
          <mxGeometry width="83" height="20" as="geometry">
            <mxRectangle width="83" height="20" as="alternateBounds" />
          </mxGeometry>
        </mxCell>
        <mxCell id="ClEjiNmjSm3RQ9jGUG7P-53" value="" style="shape=partialRectangle;html=1;whiteSpace=wrap;connectable=0;strokeColor=inherit;overflow=hidden;fillColor=none;top=0;left=0;bottom=0;right=0;pointerEvents=1;fontSize=16;" parent="ClEjiNmjSm3RQ9jGUG7P-51" vertex="1">
          <mxGeometry x="83" width="84" height="20" as="geometry">
            <mxRectangle width="84" height="20" as="alternateBounds" />
          </mxGeometry>
        </mxCell>
        <mxCell id="ClEjiNmjSm3RQ9jGUG7P-54" value="" style="shape=partialRectangle;html=1;whiteSpace=wrap;connectable=0;strokeColor=inherit;overflow=hidden;fillColor=none;top=0;left=0;bottom=0;right=0;pointerEvents=1;fontSize=16;" parent="ClEjiNmjSm3RQ9jGUG7P-51" vertex="1">
          <mxGeometry x="167" width="83" height="20" as="geometry">
            <mxRectangle width="83" height="20" as="alternateBounds" />
          </mxGeometry>
        </mxCell>
        <mxCell id="ClEjiNmjSm3RQ9jGUG7P-55" value="" style="shape=tableRow;horizontal=0;startSize=0;swimlaneHead=0;swimlaneBody=0;strokeColor=inherit;top=0;left=0;bottom=0;right=0;collapsible=0;dropTarget=0;fillColor=none;points=[[0,0.5],[1,0.5]];portConstraint=eastwest;fontSize=16;" parent="ClEjiNmjSm3RQ9jGUG7P-46" vertex="1">
          <mxGeometry y="40" width="250" height="20" as="geometry" />
        </mxCell>
        <mxCell id="ClEjiNmjSm3RQ9jGUG7P-56" value="" style="shape=partialRectangle;html=1;whiteSpace=wrap;connectable=0;strokeColor=inherit;overflow=hidden;fillColor=none;top=0;left=0;bottom=0;right=0;pointerEvents=1;fontSize=16;" parent="ClEjiNmjSm3RQ9jGUG7P-55" vertex="1">
          <mxGeometry width="83" height="20" as="geometry">
            <mxRectangle width="83" height="20" as="alternateBounds" />
          </mxGeometry>
        </mxCell>
        <mxCell id="ClEjiNmjSm3RQ9jGUG7P-57" value="" style="shape=partialRectangle;html=1;whiteSpace=wrap;connectable=0;strokeColor=inherit;overflow=hidden;fillColor=none;top=0;left=0;bottom=0;right=0;pointerEvents=1;fontSize=16;" parent="ClEjiNmjSm3RQ9jGUG7P-55" vertex="1">
          <mxGeometry x="83" width="84" height="20" as="geometry">
            <mxRectangle width="84" height="20" as="alternateBounds" />
          </mxGeometry>
        </mxCell>
        <mxCell id="ClEjiNmjSm3RQ9jGUG7P-58" value="" style="shape=partialRectangle;html=1;whiteSpace=wrap;connectable=0;strokeColor=inherit;overflow=hidden;fillColor=none;top=0;left=0;bottom=0;right=0;pointerEvents=1;fontSize=16;" parent="ClEjiNmjSm3RQ9jGUG7P-55" vertex="1">
          <mxGeometry x="167" width="83" height="20" as="geometry">
            <mxRectangle width="83" height="20" as="alternateBounds" />
          </mxGeometry>
        </mxCell>
        <mxCell id="ClEjiNmjSm3RQ9jGUG7P-59" value="" style="shape=table;startSize=0;container=1;collapsible=0;childLayout=tableLayout;fontSize=16;" parent="1" vertex="1">
          <mxGeometry x="1100" y="350" width="250" height="60" as="geometry" />
        </mxCell>
        <mxCell id="ClEjiNmjSm3RQ9jGUG7P-60" value="" style="shape=tableRow;horizontal=0;startSize=0;swimlaneHead=0;swimlaneBody=0;strokeColor=inherit;top=0;left=0;bottom=0;right=0;collapsible=0;dropTarget=0;fillColor=none;points=[[0,0.5],[1,0.5]];portConstraint=eastwest;fontSize=16;" parent="ClEjiNmjSm3RQ9jGUG7P-59" vertex="1">
          <mxGeometry width="250" height="20" as="geometry" />
        </mxCell>
        <mxCell id="ClEjiNmjSm3RQ9jGUG7P-61" value="" style="shape=partialRectangle;html=1;whiteSpace=wrap;connectable=0;strokeColor=inherit;overflow=hidden;fillColor=none;top=0;left=0;bottom=0;right=0;pointerEvents=1;fontSize=16;" parent="ClEjiNmjSm3RQ9jGUG7P-60" vertex="1">
          <mxGeometry width="83" height="20" as="geometry">
            <mxRectangle width="83" height="20" as="alternateBounds" />
          </mxGeometry>
        </mxCell>
        <mxCell id="ClEjiNmjSm3RQ9jGUG7P-62" value="" style="shape=partialRectangle;html=1;whiteSpace=wrap;connectable=0;strokeColor=inherit;overflow=hidden;fillColor=none;top=0;left=0;bottom=0;right=0;pointerEvents=1;fontSize=16;" parent="ClEjiNmjSm3RQ9jGUG7P-60" vertex="1">
          <mxGeometry x="83" width="84" height="20" as="geometry">
            <mxRectangle width="84" height="20" as="alternateBounds" />
          </mxGeometry>
        </mxCell>
        <mxCell id="ClEjiNmjSm3RQ9jGUG7P-63" value="" style="shape=partialRectangle;html=1;whiteSpace=wrap;connectable=0;strokeColor=inherit;overflow=hidden;fillColor=none;top=0;left=0;bottom=0;right=0;pointerEvents=1;fontSize=16;" parent="ClEjiNmjSm3RQ9jGUG7P-60" vertex="1">
          <mxGeometry x="167" width="83" height="20" as="geometry">
            <mxRectangle width="83" height="20" as="alternateBounds" />
          </mxGeometry>
        </mxCell>
        <mxCell id="ClEjiNmjSm3RQ9jGUG7P-64" value="" style="shape=tableRow;horizontal=0;startSize=0;swimlaneHead=0;swimlaneBody=0;strokeColor=inherit;top=0;left=0;bottom=0;right=0;collapsible=0;dropTarget=0;fillColor=none;points=[[0,0.5],[1,0.5]];portConstraint=eastwest;fontSize=16;" parent="ClEjiNmjSm3RQ9jGUG7P-59" vertex="1">
          <mxGeometry y="20" width="250" height="20" as="geometry" />
        </mxCell>
        <mxCell id="ClEjiNmjSm3RQ9jGUG7P-65" value="" style="shape=partialRectangle;html=1;whiteSpace=wrap;connectable=0;strokeColor=inherit;overflow=hidden;fillColor=none;top=0;left=0;bottom=0;right=0;pointerEvents=1;fontSize=16;" parent="ClEjiNmjSm3RQ9jGUG7P-64" vertex="1">
          <mxGeometry width="83" height="20" as="geometry">
            <mxRectangle width="83" height="20" as="alternateBounds" />
          </mxGeometry>
        </mxCell>
        <mxCell id="ClEjiNmjSm3RQ9jGUG7P-66" value="" style="shape=partialRectangle;html=1;whiteSpace=wrap;connectable=0;strokeColor=inherit;overflow=hidden;fillColor=none;top=0;left=0;bottom=0;right=0;pointerEvents=1;fontSize=16;" parent="ClEjiNmjSm3RQ9jGUG7P-64" vertex="1">
          <mxGeometry x="83" width="84" height="20" as="geometry">
            <mxRectangle width="84" height="20" as="alternateBounds" />
          </mxGeometry>
        </mxCell>
        <mxCell id="ClEjiNmjSm3RQ9jGUG7P-67" value="" style="shape=partialRectangle;html=1;whiteSpace=wrap;connectable=0;strokeColor=inherit;overflow=hidden;fillColor=none;top=0;left=0;bottom=0;right=0;pointerEvents=1;fontSize=16;" parent="ClEjiNmjSm3RQ9jGUG7P-64" vertex="1">
          <mxGeometry x="167" width="83" height="20" as="geometry">
            <mxRectangle width="83" height="20" as="alternateBounds" />
          </mxGeometry>
        </mxCell>
        <mxCell id="ClEjiNmjSm3RQ9jGUG7P-68" value="" style="shape=tableRow;horizontal=0;startSize=0;swimlaneHead=0;swimlaneBody=0;strokeColor=inherit;top=0;left=0;bottom=0;right=0;collapsible=0;dropTarget=0;fillColor=none;points=[[0,0.5],[1,0.5]];portConstraint=eastwest;fontSize=16;" parent="ClEjiNmjSm3RQ9jGUG7P-59" vertex="1">
          <mxGeometry y="40" width="250" height="20" as="geometry" />
        </mxCell>
        <mxCell id="ClEjiNmjSm3RQ9jGUG7P-69" value="" style="shape=partialRectangle;html=1;whiteSpace=wrap;connectable=0;strokeColor=inherit;overflow=hidden;fillColor=none;top=0;left=0;bottom=0;right=0;pointerEvents=1;fontSize=16;" parent="ClEjiNmjSm3RQ9jGUG7P-68" vertex="1">
          <mxGeometry width="83" height="20" as="geometry">
            <mxRectangle width="83" height="20" as="alternateBounds" />
          </mxGeometry>
        </mxCell>
        <mxCell id="ClEjiNmjSm3RQ9jGUG7P-70" value="" style="shape=partialRectangle;html=1;whiteSpace=wrap;connectable=0;strokeColor=inherit;overflow=hidden;fillColor=none;top=0;left=0;bottom=0;right=0;pointerEvents=1;fontSize=16;" parent="ClEjiNmjSm3RQ9jGUG7P-68" vertex="1">
          <mxGeometry x="83" width="84" height="20" as="geometry">
            <mxRectangle width="84" height="20" as="alternateBounds" />
          </mxGeometry>
        </mxCell>
        <mxCell id="ClEjiNmjSm3RQ9jGUG7P-71" value="" style="shape=partialRectangle;html=1;whiteSpace=wrap;connectable=0;strokeColor=inherit;overflow=hidden;fillColor=none;top=0;left=0;bottom=0;right=0;pointerEvents=1;fontSize=16;" parent="ClEjiNmjSm3RQ9jGUG7P-68" vertex="1">
          <mxGeometry x="167" width="83" height="20" as="geometry">
            <mxRectangle width="83" height="20" as="alternateBounds" />
          </mxGeometry>
        </mxCell>
        <mxCell id="ClEjiNmjSm3RQ9jGUG7P-72" value="" style="rounded=1;whiteSpace=wrap;html=1;fillColor=#dae8fc;strokeColor=#6c8ebf;shadow=1;" parent="1" vertex="1">
          <mxGeometry x="730" y="40" width="320" height="620" as="geometry" />
        </mxCell>
        <mxCell id="ClEjiNmjSm3RQ9jGUG7P-73" value="Lista de Pedidos" style="rounded=0;whiteSpace=wrap;html=1;shadow=1;" parent="1" vertex="1">
          <mxGeometry x="812.5" y="440" width="155" height="20" as="geometry" />
        </mxCell>
        <mxCell id="ClEjiNmjSm3RQ9jGUG7P-74" value="Pedido" style="ellipse;whiteSpace=wrap;html=1;" parent="1" vertex="1">
          <mxGeometry x="810" y="120" width="160" height="80" as="geometry" />
        </mxCell>
        <mxCell id="ClEjiNmjSm3RQ9jGUG7P-75" value="Cadastro de Pedidos" style="rounded=0;whiteSpace=wrap;html=1;shadow=1;" parent="1" vertex="1">
          <mxGeometry x="812.5" y="470" width="155" height="20" as="geometry" />
        </mxCell>
        <mxCell id="ClEjiNmjSm3RQ9jGUG7P-76" value="" style="rounded=1;whiteSpace=wrap;html=1;fillColor=#dae8fc;strokeColor=#6c8ebf;shadow=1;" parent="1" vertex="1">
          <mxGeometry x="1370" y="40" width="320" height="620" as="geometry" />
        </mxCell>
        <mxCell id="ClEjiNmjSm3RQ9jGUG7P-77" value="Cadastro de Pedidos" style="ellipse;whiteSpace=wrap;html=1;" parent="1" vertex="1">
          <mxGeometry x="1450" y="120" width="160" height="80" as="geometry" />
        </mxCell>
        <mxCell id="ClEjiNmjSm3RQ9jGUG7P-92" value="" style="shape=table;startSize=0;container=1;collapsible=0;childLayout=tableLayout;fontSize=16;" parent="1" vertex="1">
          <mxGeometry x="1100" y="410" width="250" height="60" as="geometry" />
        </mxCell>
        <mxCell id="ClEjiNmjSm3RQ9jGUG7P-93" value="" style="shape=tableRow;horizontal=0;startSize=0;swimlaneHead=0;swimlaneBody=0;strokeColor=inherit;top=0;left=0;bottom=0;right=0;collapsible=0;dropTarget=0;fillColor=none;points=[[0,0.5],[1,0.5]];portConstraint=eastwest;fontSize=16;" parent="ClEjiNmjSm3RQ9jGUG7P-92" vertex="1">
          <mxGeometry width="250" height="20" as="geometry" />
        </mxCell>
        <mxCell id="ClEjiNmjSm3RQ9jGUG7P-94" value="" style="shape=partialRectangle;html=1;whiteSpace=wrap;connectable=0;strokeColor=inherit;overflow=hidden;fillColor=none;top=0;left=0;bottom=0;right=0;pointerEvents=1;fontSize=16;" parent="ClEjiNmjSm3RQ9jGUG7P-93" vertex="1">
          <mxGeometry width="83" height="20" as="geometry">
            <mxRectangle width="83" height="20" as="alternateBounds" />
          </mxGeometry>
        </mxCell>
        <mxCell id="ClEjiNmjSm3RQ9jGUG7P-95" value="" style="shape=partialRectangle;html=1;whiteSpace=wrap;connectable=0;strokeColor=inherit;overflow=hidden;fillColor=none;top=0;left=0;bottom=0;right=0;pointerEvents=1;fontSize=16;" parent="ClEjiNmjSm3RQ9jGUG7P-93" vertex="1">
          <mxGeometry x="83" width="84" height="20" as="geometry">
            <mxRectangle width="84" height="20" as="alternateBounds" />
          </mxGeometry>
        </mxCell>
        <mxCell id="ClEjiNmjSm3RQ9jGUG7P-96" value="" style="shape=partialRectangle;html=1;whiteSpace=wrap;connectable=0;strokeColor=inherit;overflow=hidden;fillColor=none;top=0;left=0;bottom=0;right=0;pointerEvents=1;fontSize=16;" parent="ClEjiNmjSm3RQ9jGUG7P-93" vertex="1">
          <mxGeometry x="167" width="83" height="20" as="geometry">
            <mxRectangle width="83" height="20" as="alternateBounds" />
          </mxGeometry>
        </mxCell>
        <mxCell id="ClEjiNmjSm3RQ9jGUG7P-97" value="" style="shape=tableRow;horizontal=0;startSize=0;swimlaneHead=0;swimlaneBody=0;strokeColor=inherit;top=0;left=0;bottom=0;right=0;collapsible=0;dropTarget=0;fillColor=none;points=[[0,0.5],[1,0.5]];portConstraint=eastwest;fontSize=16;" parent="ClEjiNmjSm3RQ9jGUG7P-92" vertex="1">
          <mxGeometry y="20" width="250" height="20" as="geometry" />
        </mxCell>
        <mxCell id="ClEjiNmjSm3RQ9jGUG7P-98" value="" style="shape=partialRectangle;html=1;whiteSpace=wrap;connectable=0;strokeColor=inherit;overflow=hidden;fillColor=none;top=0;left=0;bottom=0;right=0;pointerEvents=1;fontSize=16;" parent="ClEjiNmjSm3RQ9jGUG7P-97" vertex="1">
          <mxGeometry width="83" height="20" as="geometry">
            <mxRectangle width="83" height="20" as="alternateBounds" />
          </mxGeometry>
        </mxCell>
        <mxCell id="ClEjiNmjSm3RQ9jGUG7P-99" value="" style="shape=partialRectangle;html=1;whiteSpace=wrap;connectable=0;strokeColor=inherit;overflow=hidden;fillColor=none;top=0;left=0;bottom=0;right=0;pointerEvents=1;fontSize=16;" parent="ClEjiNmjSm3RQ9jGUG7P-97" vertex="1">
          <mxGeometry x="83" width="84" height="20" as="geometry">
            <mxRectangle width="84" height="20" as="alternateBounds" />
          </mxGeometry>
        </mxCell>
        <mxCell id="ClEjiNmjSm3RQ9jGUG7P-100" value="" style="shape=partialRectangle;html=1;whiteSpace=wrap;connectable=0;strokeColor=inherit;overflow=hidden;fillColor=none;top=0;left=0;bottom=0;right=0;pointerEvents=1;fontSize=16;" parent="ClEjiNmjSm3RQ9jGUG7P-97" vertex="1">
          <mxGeometry x="167" width="83" height="20" as="geometry">
            <mxRectangle width="83" height="20" as="alternateBounds" />
          </mxGeometry>
        </mxCell>
        <mxCell id="ClEjiNmjSm3RQ9jGUG7P-101" value="" style="shape=tableRow;horizontal=0;startSize=0;swimlaneHead=0;swimlaneBody=0;strokeColor=inherit;top=0;left=0;bottom=0;right=0;collapsible=0;dropTarget=0;fillColor=none;points=[[0,0.5],[1,0.5]];portConstraint=eastwest;fontSize=16;" parent="ClEjiNmjSm3RQ9jGUG7P-92" vertex="1">
          <mxGeometry y="40" width="250" height="20" as="geometry" />
        </mxCell>
        <mxCell id="ClEjiNmjSm3RQ9jGUG7P-102" value="" style="shape=partialRectangle;html=1;whiteSpace=wrap;connectable=0;strokeColor=inherit;overflow=hidden;fillColor=none;top=0;left=0;bottom=0;right=0;pointerEvents=1;fontSize=16;" parent="ClEjiNmjSm3RQ9jGUG7P-101" vertex="1">
          <mxGeometry width="83" height="20" as="geometry">
            <mxRectangle width="83" height="20" as="alternateBounds" />
          </mxGeometry>
        </mxCell>
        <mxCell id="ClEjiNmjSm3RQ9jGUG7P-103" value="" style="shape=partialRectangle;html=1;whiteSpace=wrap;connectable=0;strokeColor=inherit;overflow=hidden;fillColor=none;top=0;left=0;bottom=0;right=0;pointerEvents=1;fontSize=16;" parent="ClEjiNmjSm3RQ9jGUG7P-101" vertex="1">
          <mxGeometry x="83" width="84" height="20" as="geometry">
            <mxRectangle width="84" height="20" as="alternateBounds" />
          </mxGeometry>
        </mxCell>
        <mxCell id="ClEjiNmjSm3RQ9jGUG7P-104" value="" style="shape=partialRectangle;html=1;whiteSpace=wrap;connectable=0;strokeColor=inherit;overflow=hidden;fillColor=none;top=0;left=0;bottom=0;right=0;pointerEvents=1;fontSize=16;" parent="ClEjiNmjSm3RQ9jGUG7P-101" vertex="1">
          <mxGeometry x="167" width="83" height="20" as="geometry">
            <mxRectangle width="83" height="20" as="alternateBounds" />
          </mxGeometry>
        </mxCell>
        <mxCell id="ClEjiNmjSm3RQ9jGUG7P-105" value="" style="shape=table;startSize=0;container=1;collapsible=0;childLayout=tableLayout;fontSize=16;" parent="1" vertex="1">
          <mxGeometry x="1100" y="470" width="250" height="60" as="geometry" />
        </mxCell>
        <mxCell id="ClEjiNmjSm3RQ9jGUG7P-106" value="" style="shape=tableRow;horizontal=0;startSize=0;swimlaneHead=0;swimlaneBody=0;strokeColor=inherit;top=0;left=0;bottom=0;right=0;collapsible=0;dropTarget=0;fillColor=none;points=[[0,0.5],[1,0.5]];portConstraint=eastwest;fontSize=16;" parent="ClEjiNmjSm3RQ9jGUG7P-105" vertex="1">
          <mxGeometry width="250" height="20" as="geometry" />
        </mxCell>
        <mxCell id="ClEjiNmjSm3RQ9jGUG7P-107" value="" style="shape=partialRectangle;html=1;whiteSpace=wrap;connectable=0;strokeColor=inherit;overflow=hidden;fillColor=none;top=0;left=0;bottom=0;right=0;pointerEvents=1;fontSize=16;" parent="ClEjiNmjSm3RQ9jGUG7P-106" vertex="1">
          <mxGeometry width="83" height="20" as="geometry">
            <mxRectangle width="83" height="20" as="alternateBounds" />
          </mxGeometry>
        </mxCell>
        <mxCell id="ClEjiNmjSm3RQ9jGUG7P-108" value="" style="shape=partialRectangle;html=1;whiteSpace=wrap;connectable=0;strokeColor=inherit;overflow=hidden;fillColor=none;top=0;left=0;bottom=0;right=0;pointerEvents=1;fontSize=16;" parent="ClEjiNmjSm3RQ9jGUG7P-106" vertex="1">
          <mxGeometry x="83" width="84" height="20" as="geometry">
            <mxRectangle width="84" height="20" as="alternateBounds" />
          </mxGeometry>
        </mxCell>
        <mxCell id="ClEjiNmjSm3RQ9jGUG7P-109" value="" style="shape=partialRectangle;html=1;whiteSpace=wrap;connectable=0;strokeColor=inherit;overflow=hidden;fillColor=none;top=0;left=0;bottom=0;right=0;pointerEvents=1;fontSize=16;" parent="ClEjiNmjSm3RQ9jGUG7P-106" vertex="1">
          <mxGeometry x="167" width="83" height="20" as="geometry">
            <mxRectangle width="83" height="20" as="alternateBounds" />
          </mxGeometry>
        </mxCell>
        <mxCell id="ClEjiNmjSm3RQ9jGUG7P-110" value="" style="shape=tableRow;horizontal=0;startSize=0;swimlaneHead=0;swimlaneBody=0;strokeColor=inherit;top=0;left=0;bottom=0;right=0;collapsible=0;dropTarget=0;fillColor=none;points=[[0,0.5],[1,0.5]];portConstraint=eastwest;fontSize=16;" parent="ClEjiNmjSm3RQ9jGUG7P-105" vertex="1">
          <mxGeometry y="20" width="250" height="20" as="geometry" />
        </mxCell>
        <mxCell id="ClEjiNmjSm3RQ9jGUG7P-111" value="" style="shape=partialRectangle;html=1;whiteSpace=wrap;connectable=0;strokeColor=inherit;overflow=hidden;fillColor=none;top=0;left=0;bottom=0;right=0;pointerEvents=1;fontSize=16;" parent="ClEjiNmjSm3RQ9jGUG7P-110" vertex="1">
          <mxGeometry width="83" height="20" as="geometry">
            <mxRectangle width="83" height="20" as="alternateBounds" />
          </mxGeometry>
        </mxCell>
        <mxCell id="ClEjiNmjSm3RQ9jGUG7P-112" value="" style="shape=partialRectangle;html=1;whiteSpace=wrap;connectable=0;strokeColor=inherit;overflow=hidden;fillColor=none;top=0;left=0;bottom=0;right=0;pointerEvents=1;fontSize=16;" parent="ClEjiNmjSm3RQ9jGUG7P-110" vertex="1">
          <mxGeometry x="83" width="84" height="20" as="geometry">
            <mxRectangle width="84" height="20" as="alternateBounds" />
          </mxGeometry>
        </mxCell>
        <mxCell id="ClEjiNmjSm3RQ9jGUG7P-113" value="" style="shape=partialRectangle;html=1;whiteSpace=wrap;connectable=0;strokeColor=inherit;overflow=hidden;fillColor=none;top=0;left=0;bottom=0;right=0;pointerEvents=1;fontSize=16;" parent="ClEjiNmjSm3RQ9jGUG7P-110" vertex="1">
          <mxGeometry x="167" width="83" height="20" as="geometry">
            <mxRectangle width="83" height="20" as="alternateBounds" />
          </mxGeometry>
        </mxCell>
        <mxCell id="ClEjiNmjSm3RQ9jGUG7P-114" value="" style="shape=tableRow;horizontal=0;startSize=0;swimlaneHead=0;swimlaneBody=0;strokeColor=inherit;top=0;left=0;bottom=0;right=0;collapsible=0;dropTarget=0;fillColor=none;points=[[0,0.5],[1,0.5]];portConstraint=eastwest;fontSize=16;" parent="ClEjiNmjSm3RQ9jGUG7P-105" vertex="1">
          <mxGeometry y="40" width="250" height="20" as="geometry" />
        </mxCell>
        <mxCell id="ClEjiNmjSm3RQ9jGUG7P-115" value="" style="shape=partialRectangle;html=1;whiteSpace=wrap;connectable=0;strokeColor=inherit;overflow=hidden;fillColor=none;top=0;left=0;bottom=0;right=0;pointerEvents=1;fontSize=16;" parent="ClEjiNmjSm3RQ9jGUG7P-114" vertex="1">
          <mxGeometry width="83" height="20" as="geometry">
            <mxRectangle width="83" height="20" as="alternateBounds" />
          </mxGeometry>
        </mxCell>
        <mxCell id="ClEjiNmjSm3RQ9jGUG7P-116" value="" style="shape=partialRectangle;html=1;whiteSpace=wrap;connectable=0;strokeColor=inherit;overflow=hidden;fillColor=none;top=0;left=0;bottom=0;right=0;pointerEvents=1;fontSize=16;" parent="ClEjiNmjSm3RQ9jGUG7P-114" vertex="1">
          <mxGeometry x="83" width="84" height="20" as="geometry">
            <mxRectangle width="84" height="20" as="alternateBounds" />
          </mxGeometry>
        </mxCell>
        <mxCell id="ClEjiNmjSm3RQ9jGUG7P-117" value="" style="shape=partialRectangle;html=1;whiteSpace=wrap;connectable=0;strokeColor=inherit;overflow=hidden;fillColor=none;top=0;left=0;bottom=0;right=0;pointerEvents=1;fontSize=16;" parent="ClEjiNmjSm3RQ9jGUG7P-114" vertex="1">
          <mxGeometry x="167" width="83" height="20" as="geometry">
            <mxRectangle width="83" height="20" as="alternateBounds" />
          </mxGeometry>
        </mxCell>
        <mxCell id="ClEjiNmjSm3RQ9jGUG7P-132" value="" style="shape=flexArrow;endArrow=classic;html=1;rounded=0;" parent="1" edge="1">
          <mxGeometry width="50" height="50" relative="1" as="geometry">
            <mxPoint x="1242.5" y="570" as="sourcePoint" />
            <mxPoint x="1302.5" y="570" as="targetPoint" />
            <Array as="points">
              <mxPoint x="1262.5" y="570" />
            </Array>
          </mxGeometry>
        </mxCell>
        <mxCell id="ClEjiNmjSm3RQ9jGUG7P-134" value="" style="shape=flexArrow;endArrow=classic;html=1;rounded=0;" parent="1" edge="1">
          <mxGeometry width="50" height="50" relative="1" as="geometry">
            <mxPoint x="870" y="570" as="sourcePoint" />
            <mxPoint x="810" y="570" as="targetPoint" />
            <Array as="points">
              <mxPoint x="830" y="570" />
            </Array>
          </mxGeometry>
        </mxCell>
        <mxCell id="ClEjiNmjSm3RQ9jGUG7P-135" value="" style="shape=flexArrow;endArrow=classic;html=1;rounded=0;" parent="1" edge="1">
          <mxGeometry width="50" height="50" relative="1" as="geometry">
            <mxPoint x="910" y="570" as="sourcePoint" />
            <mxPoint x="970" y="570" as="targetPoint" />
            <Array as="points">
              <mxPoint x="930" y="570" />
            </Array>
          </mxGeometry>
        </mxCell>
        <mxCell id="ClEjiNmjSm3RQ9jGUG7P-136" value="" style="shape=flexArrow;endArrow=classic;html=1;rounded=0;" parent="1" edge="1">
          <mxGeometry width="50" height="50" relative="1" as="geometry">
            <mxPoint x="1207.5" y="570" as="sourcePoint" />
            <mxPoint x="1147.5" y="570" as="targetPoint" />
            <Array as="points">
              <mxPoint x="1167.5" y="570" />
            </Array>
          </mxGeometry>
        </mxCell>
        <mxCell id="ClEjiNmjSm3RQ9jGUG7P-141" value="" style="shape=flexArrow;endArrow=classic;html=1;rounded=0;" parent="1" edge="1">
          <mxGeometry width="50" height="50" relative="1" as="geometry">
            <mxPoint x="1540" y="570" as="sourcePoint" />
            <mxPoint x="1600" y="570" as="targetPoint" />
            <Array as="points">
              <mxPoint x="1560" y="570" />
            </Array>
          </mxGeometry>
        </mxCell>
        <mxCell id="ClEjiNmjSm3RQ9jGUG7P-142" value="" style="shape=flexArrow;endArrow=classic;html=1;rounded=0;" parent="1" edge="1">
          <mxGeometry width="50" height="50" relative="1" as="geometry">
            <mxPoint x="1510" y="570" as="sourcePoint" />
            <mxPoint x="1450" y="570" as="targetPoint" />
            <Array as="points">
              <mxPoint x="1470" y="570" />
            </Array>
          </mxGeometry>
        </mxCell>
        <mxCell id="ClEjiNmjSm3RQ9jGUG7P-146" value="Informações Necessárias" style="text;html=1;align=center;verticalAlign=middle;whiteSpace=wrap;rounded=0;" parent="1" vertex="1">
          <mxGeometry x="1145" y="250" width="160" height="30" as="geometry" />
        </mxCell>
        <mxCell id="6mCBiXorAJk5C85nNwfz-1" value="" style="rounded=1;whiteSpace=wrap;html=1;fillColor=#dae8fc;strokeColor=#6c8ebf;shadow=1;" parent="1" vertex="1">
          <mxGeometry x="1690" y="40" width="320" height="620" as="geometry" />
        </mxCell>
        <mxCell id="6mCBiXorAJk5C85nNwfz-28" value="" style="shape=table;startSize=0;container=1;collapsible=0;childLayout=tableLayout;fontSize=16;" parent="1" vertex="1">
          <mxGeometry x="1405" y="350" width="250" height="20" as="geometry" />
        </mxCell>
        <mxCell id="6mCBiXorAJk5C85nNwfz-29" value="" style="shape=tableRow;horizontal=0;startSize=0;swimlaneHead=0;swimlaneBody=0;strokeColor=inherit;top=0;left=0;bottom=0;right=0;collapsible=0;dropTarget=0;fillColor=none;points=[[0,0.5],[1,0.5]];portConstraint=eastwest;fontSize=16;" parent="6mCBiXorAJk5C85nNwfz-28" vertex="1">
          <mxGeometry width="250" height="20" as="geometry" />
        </mxCell>
        <mxCell id="6mCBiXorAJk5C85nNwfz-30" value="valor" style="shape=partialRectangle;html=1;whiteSpace=wrap;connectable=0;strokeColor=inherit;overflow=hidden;fillColor=none;top=0;left=0;bottom=0;right=0;pointerEvents=1;fontSize=16;" parent="6mCBiXorAJk5C85nNwfz-29" vertex="1">
          <mxGeometry width="135" height="20" as="geometry">
            <mxRectangle width="135" height="20" as="alternateBounds" />
          </mxGeometry>
        </mxCell>
        <mxCell id="6mCBiXorAJk5C85nNwfz-31" value="" style="shape=partialRectangle;html=1;whiteSpace=wrap;connectable=0;strokeColor=inherit;overflow=hidden;fillColor=none;top=0;left=0;bottom=0;right=0;pointerEvents=1;fontSize=16;" parent="6mCBiXorAJk5C85nNwfz-29" vertex="1">
          <mxGeometry x="135" width="50" height="20" as="geometry">
            <mxRectangle width="50" height="20" as="alternateBounds" />
          </mxGeometry>
        </mxCell>
        <mxCell id="6mCBiXorAJk5C85nNwfz-32" value="" style="shape=partialRectangle;html=1;whiteSpace=wrap;connectable=0;strokeColor=inherit;overflow=hidden;fillColor=none;top=0;left=0;bottom=0;right=0;pointerEvents=1;fontSize=16;" parent="6mCBiXorAJk5C85nNwfz-29" vertex="1">
          <mxGeometry x="185" width="65" height="20" as="geometry">
            <mxRectangle width="65" height="20" as="alternateBounds" />
          </mxGeometry>
        </mxCell>
        <mxCell id="6mCBiXorAJk5C85nNwfz-42" value="" style="shape=table;startSize=0;container=1;collapsible=0;childLayout=tableLayout;fontSize=16;" parent="1" vertex="1">
          <mxGeometry x="1405" y="290" width="250" height="60" as="geometry" />
        </mxCell>
        <mxCell id="6mCBiXorAJk5C85nNwfz-43" value="" style="shape=tableRow;horizontal=0;startSize=0;swimlaneHead=0;swimlaneBody=0;strokeColor=inherit;top=0;left=0;bottom=0;right=0;collapsible=0;dropTarget=0;fillColor=none;points=[[0,0.5],[1,0.5]];portConstraint=eastwest;fontSize=16;" parent="6mCBiXorAJk5C85nNwfz-42" vertex="1">
          <mxGeometry width="250" height="20" as="geometry" />
        </mxCell>
        <mxCell id="6mCBiXorAJk5C85nNwfz-44" value="nome do cliente" style="shape=partialRectangle;html=1;whiteSpace=wrap;connectable=0;strokeColor=inherit;overflow=hidden;fillColor=none;top=0;left=0;bottom=0;right=0;pointerEvents=1;fontSize=16;" parent="6mCBiXorAJk5C85nNwfz-43" vertex="1">
          <mxGeometry width="135" height="20" as="geometry">
            <mxRectangle width="135" height="20" as="alternateBounds" />
          </mxGeometry>
        </mxCell>
        <mxCell id="6mCBiXorAJk5C85nNwfz-45" value="" style="shape=partialRectangle;html=1;whiteSpace=wrap;connectable=0;strokeColor=inherit;overflow=hidden;fillColor=none;top=0;left=0;bottom=0;right=0;pointerEvents=1;fontSize=16;" parent="6mCBiXorAJk5C85nNwfz-43" vertex="1">
          <mxGeometry x="135" width="50" height="20" as="geometry">
            <mxRectangle width="50" height="20" as="alternateBounds" />
          </mxGeometry>
        </mxCell>
        <mxCell id="6mCBiXorAJk5C85nNwfz-46" value="" style="shape=partialRectangle;html=1;whiteSpace=wrap;connectable=0;strokeColor=inherit;overflow=hidden;fillColor=none;top=0;left=0;bottom=0;right=0;pointerEvents=1;fontSize=16;" parent="6mCBiXorAJk5C85nNwfz-43" vertex="1">
          <mxGeometry x="185" width="65" height="20" as="geometry">
            <mxRectangle width="65" height="20" as="alternateBounds" />
          </mxGeometry>
        </mxCell>
        <mxCell id="6mCBiXorAJk5C85nNwfz-47" value="" style="shape=tableRow;horizontal=0;startSize=0;swimlaneHead=0;swimlaneBody=0;strokeColor=inherit;top=0;left=0;bottom=0;right=0;collapsible=0;dropTarget=0;fillColor=none;points=[[0,0.5],[1,0.5]];portConstraint=eastwest;fontSize=16;" parent="6mCBiXorAJk5C85nNwfz-42" vertex="1">
          <mxGeometry y="20" width="250" height="20" as="geometry" />
        </mxCell>
        <mxCell id="6mCBiXorAJk5C85nNwfz-48" value="prod" style="shape=partialRectangle;html=1;whiteSpace=wrap;connectable=0;strokeColor=inherit;overflow=hidden;fillColor=none;top=0;left=0;bottom=0;right=0;pointerEvents=1;fontSize=16;" parent="6mCBiXorAJk5C85nNwfz-47" vertex="1">
          <mxGeometry width="135" height="20" as="geometry">
            <mxRectangle width="135" height="20" as="alternateBounds" />
          </mxGeometry>
        </mxCell>
        <mxCell id="6mCBiXorAJk5C85nNwfz-49" value="" style="shape=partialRectangle;html=1;whiteSpace=wrap;connectable=0;strokeColor=inherit;overflow=hidden;fillColor=none;top=0;left=0;bottom=0;right=0;pointerEvents=1;fontSize=16;" parent="6mCBiXorAJk5C85nNwfz-47" vertex="1">
          <mxGeometry x="135" width="50" height="20" as="geometry">
            <mxRectangle width="50" height="20" as="alternateBounds" />
          </mxGeometry>
        </mxCell>
        <mxCell id="6mCBiXorAJk5C85nNwfz-50" value="" style="shape=partialRectangle;html=1;whiteSpace=wrap;connectable=0;strokeColor=inherit;overflow=hidden;fillColor=none;top=0;left=0;bottom=0;right=0;pointerEvents=1;fontSize=16;" parent="6mCBiXorAJk5C85nNwfz-47" vertex="1">
          <mxGeometry x="185" width="65" height="20" as="geometry">
            <mxRectangle width="65" height="20" as="alternateBounds" />
          </mxGeometry>
        </mxCell>
        <mxCell id="6mCBiXorAJk5C85nNwfz-51" value="" style="shape=tableRow;horizontal=0;startSize=0;swimlaneHead=0;swimlaneBody=0;strokeColor=inherit;top=0;left=0;bottom=0;right=0;collapsible=0;dropTarget=0;fillColor=none;points=[[0,0.5],[1,0.5]];portConstraint=eastwest;fontSize=16;" parent="6mCBiXorAJk5C85nNwfz-42" vertex="1">
          <mxGeometry y="40" width="250" height="20" as="geometry" />
        </mxCell>
        <mxCell id="6mCBiXorAJk5C85nNwfz-52" value="quant" style="shape=partialRectangle;html=1;whiteSpace=wrap;connectable=0;strokeColor=inherit;overflow=hidden;fillColor=none;top=0;left=0;bottom=0;right=0;pointerEvents=1;fontSize=16;" parent="6mCBiXorAJk5C85nNwfz-51" vertex="1">
          <mxGeometry width="135" height="20" as="geometry">
            <mxRectangle width="135" height="20" as="alternateBounds" />
          </mxGeometry>
        </mxCell>
        <mxCell id="6mCBiXorAJk5C85nNwfz-53" value="" style="shape=partialRectangle;html=1;whiteSpace=wrap;connectable=0;strokeColor=inherit;overflow=hidden;fillColor=none;top=0;left=0;bottom=0;right=0;pointerEvents=1;fontSize=16;" parent="6mCBiXorAJk5C85nNwfz-51" vertex="1">
          <mxGeometry x="135" width="50" height="20" as="geometry">
            <mxRectangle width="50" height="20" as="alternateBounds" />
          </mxGeometry>
        </mxCell>
        <mxCell id="6mCBiXorAJk5C85nNwfz-54" value="" style="shape=partialRectangle;html=1;whiteSpace=wrap;connectable=0;strokeColor=inherit;overflow=hidden;fillColor=none;top=0;left=0;bottom=0;right=0;pointerEvents=1;fontSize=16;" parent="6mCBiXorAJk5C85nNwfz-51" vertex="1">
          <mxGeometry x="185" width="65" height="20" as="geometry">
            <mxRectangle width="65" height="20" as="alternateBounds" />
          </mxGeometry>
        </mxCell>
        <mxCell id="6mCBiXorAJk5C85nNwfz-55" value="Realização do Pagamento" style="ellipse;whiteSpace=wrap;html=1;" parent="1" vertex="1">
          <mxGeometry x="1770" y="120" width="160" height="80" as="geometry" />
        </mxCell>
        <mxCell id="6mCBiXorAJk5C85nNwfz-56" value="Realização do Pagamento" style="rounded=0;whiteSpace=wrap;html=1;shadow=1;" parent="1" vertex="1">
          <mxGeometry x="812.5" y="500" width="155" height="20" as="geometry" />
        </mxCell>
        <mxCell id="6mCBiXorAJk5C85nNwfz-57" value="Dinheiro&lt;span style=&quot;color: rgba(0, 0, 0, 0); font-family: monospace; font-size: 0px; text-align: start; text-wrap: nowrap;&quot;&gt;%3CmxGraphModel%3E%3Croot%3E%3CmxCell%20id%3D%220%22%2F%3E%3CmxCell%20id%3D%221%22%20parent%3D%220%22%2F%3E%3CmxCell%20id%3D%222%22%20value%3D%22Atualizar%22%20style%3D%22rounded%3D0%3BwhiteSpace%3Dwrap%3Bhtml%3D1%3Bshadow%3D1%3B%22%20vertex%3D%221%22%20parent%3D%221%22%3E%3CmxGeometry%20x%3D%22500%22%20y%3D%22550%22%20width%3D%22130%22%20height%3D%2220%22%20as%3D%22geometry%22%2F%3E%3C%2FmxCell%3E%3C%2Froot%3E%3C%2FmxGraphModel%3E&lt;/span&gt;" style="rounded=0;whiteSpace=wrap;html=1;shadow=1;" parent="1" vertex="1">
          <mxGeometry x="1785" y="290" width="130" height="20" as="geometry" />
        </mxCell>
        <mxCell id="6mCBiXorAJk5C85nNwfz-59" value="Cartão&amp;nbsp;" style="rounded=0;whiteSpace=wrap;html=1;shadow=1;" parent="1" vertex="1">
          <mxGeometry x="1785" y="320" width="130" height="20" as="geometry" />
        </mxCell>
        <mxCell id="6mCBiXorAJk5C85nNwfz-60" value="Pix" style="rounded=0;whiteSpace=wrap;html=1;shadow=1;" parent="1" vertex="1">
          <mxGeometry x="1785" y="350" width="130" height="20" as="geometry" />
        </mxCell>
        <mxCell id="6mCBiXorAJk5C85nNwfz-62" value="" style="shape=flexArrow;endArrow=classic;html=1;rounded=0;" parent="1" edge="1">
          <mxGeometry width="50" height="50" relative="1" as="geometry">
            <mxPoint x="1870" y="570" as="sourcePoint" />
            <mxPoint x="1930" y="570" as="targetPoint" />
            <Array as="points">
              <mxPoint x="1890" y="570" />
            </Array>
          </mxGeometry>
        </mxCell>
        <mxCell id="6mCBiXorAJk5C85nNwfz-63" value="" style="shape=flexArrow;endArrow=classic;html=1;rounded=0;" parent="1" edge="1">
          <mxGeometry width="50" height="50" relative="1" as="geometry">
            <mxPoint x="1830" y="570" as="sourcePoint" />
            <mxPoint x="1770" y="570" as="targetPoint" />
            <Array as="points">
              <mxPoint x="1790" y="570" />
            </Array>
          </mxGeometry>
        </mxCell>
        <mxCell id="6mCBiXorAJk5C85nNwfz-71" value="" style="group" parent="1" vertex="1" connectable="0">
          <mxGeometry x="2970" y="40" width="320" height="620" as="geometry" />
        </mxCell>
        <mxCell id="6mCBiXorAJk5C85nNwfz-64" value="" style="rounded=1;whiteSpace=wrap;html=1;fillColor=#dae8fc;strokeColor=#6c8ebf;shadow=1;" parent="6mCBiXorAJk5C85nNwfz-71" vertex="1">
          <mxGeometry width="320" height="620" as="geometry" />
        </mxCell>
        <mxCell id="6mCBiXorAJk5C85nNwfz-65" value="Pedido Finalizado" style="ellipse;whiteSpace=wrap;html=1;" parent="6mCBiXorAJk5C85nNwfz-71" vertex="1">
          <mxGeometry x="90" y="70" width="160" height="80" as="geometry" />
        </mxCell>
        <mxCell id="6mCBiXorAJk5C85nNwfz-66" value="Voltar para a Tela Inicial" style="rounded=0;whiteSpace=wrap;html=1;shadow=1;" parent="6mCBiXorAJk5C85nNwfz-71" vertex="1">
          <mxGeometry x="77.5" y="420" width="185" height="30" as="geometry" />
        </mxCell>
        <mxCell id="6mCBiXorAJk5C85nNwfz-68" value="Seu pedido foi finalizado com sucesso!!&lt;div&gt;Obrigada pela compra.&lt;/div&gt;" style="text;html=1;align=center;verticalAlign=middle;whiteSpace=wrap;rounded=0;" parent="6mCBiXorAJk5C85nNwfz-71" vertex="1">
          <mxGeometry x="67.5" y="265" width="205" height="30" as="geometry" />
        </mxCell>
        <mxCell id="6mCBiXorAJk5C85nNwfz-69" value="" style="shape=flexArrow;endArrow=classic;html=1;rounded=0;" parent="6mCBiXorAJk5C85nNwfz-71" edge="1">
          <mxGeometry width="50" height="50" relative="1" as="geometry">
            <mxPoint x="200" y="530" as="sourcePoint" />
            <mxPoint x="140" y="530" as="targetPoint" />
            <Array as="points">
              <mxPoint x="160" y="530" />
            </Array>
          </mxGeometry>
        </mxCell>
        <mxCell id="6mCBiXorAJk5C85nNwfz-72" value="" style="rounded=1;whiteSpace=wrap;html=1;fillColor=#dae8fc;strokeColor=#6c8ebf;shadow=1;" parent="1" vertex="1">
          <mxGeometry x="2010" y="40" width="320" height="620" as="geometry" />
        </mxCell>
        <mxCell id="6mCBiXorAJk5C85nNwfz-73" value="Precisa de Troco?" style="rounded=1;whiteSpace=wrap;html=1;" parent="1" vertex="1">
          <mxGeometry x="2060" y="210" width="220" height="130" as="geometry" />
        </mxCell>
        <mxCell id="6mCBiXorAJk5C85nNwfz-75" value="Sim" style="rounded=0;whiteSpace=wrap;html=1;" parent="1" vertex="1">
          <mxGeometry x="2100" y="300" width="50" height="20" as="geometry" />
        </mxCell>
        <mxCell id="6mCBiXorAJk5C85nNwfz-76" value="Não" style="rounded=0;whiteSpace=wrap;html=1;" parent="1" vertex="1">
          <mxGeometry x="2190" y="300" width="50" height="20" as="geometry" />
        </mxCell>
        <mxCell id="6mCBiXorAJk5C85nNwfz-77" value="Se sim,quanto?" style="rounded=1;whiteSpace=wrap;html=1;" parent="1" vertex="1">
          <mxGeometry x="2060" y="360" width="220" height="130" as="geometry" />
        </mxCell>
        <mxCell id="6mCBiXorAJk5C85nNwfz-79" value="R$ 00,00" style="rounded=0;whiteSpace=wrap;html=1;" parent="1" vertex="1">
          <mxGeometry x="2140" y="440" width="60" height="20" as="geometry" />
        </mxCell>
        <mxCell id="6mCBiXorAJk5C85nNwfz-80" value="Dinheiro" style="ellipse;whiteSpace=wrap;html=1;" parent="1" vertex="1">
          <mxGeometry x="2090" y="100" width="160" height="80" as="geometry" />
        </mxCell>
        <mxCell id="6mCBiXorAJk5C85nNwfz-81" value="" style="rounded=1;whiteSpace=wrap;html=1;fillColor=#dae8fc;strokeColor=#6c8ebf;shadow=1;" parent="1" vertex="1">
          <mxGeometry x="2330" y="40" width="320" height="620" as="geometry" />
        </mxCell>
        <mxCell id="6mCBiXorAJk5C85nNwfz-82" value="Cartão" style="ellipse;whiteSpace=wrap;html=1;" parent="1" vertex="1">
          <mxGeometry x="2410" y="100" width="160" height="80" as="geometry" />
        </mxCell>
        <mxCell id="6mCBiXorAJk5C85nNwfz-83" value="" style="rounded=1;whiteSpace=wrap;html=1;fillColor=#dae8fc;strokeColor=#6c8ebf;shadow=1;" parent="1" vertex="1">
          <mxGeometry x="2650" y="40" width="320" height="620" as="geometry" />
        </mxCell>
        <mxCell id="6mCBiXorAJk5C85nNwfz-90" value="Pix" style="ellipse;whiteSpace=wrap;html=1;" parent="1" vertex="1">
          <mxGeometry x="2730" y="100" width="160" height="80" as="geometry" />
        </mxCell>
        <mxCell id="6mCBiXorAJk5C85nNwfz-91" value="Chave Pix:" style="text;html=1;align=center;verticalAlign=middle;whiteSpace=wrap;rounded=0;" parent="1" vertex="1">
          <mxGeometry x="2760" y="270" width="100" height="30" as="geometry" />
        </mxCell>
        <mxCell id="6mCBiXorAJk5C85nNwfz-92" value="0782.013.920-54" style="text;html=1;align=center;verticalAlign=middle;whiteSpace=wrap;rounded=0;" parent="1" vertex="1">
          <mxGeometry x="2750" y="315" width="120" height="30" as="geometry" />
        </mxCell>
        <mxCell id="6mCBiXorAJk5C85nNwfz-93" value="Crédito ou Débito?" style="rounded=1;whiteSpace=wrap;html=1;" parent="1" vertex="1">
          <mxGeometry x="2380" y="230" width="220" height="130" as="geometry" />
        </mxCell>
        <mxCell id="6mCBiXorAJk5C85nNwfz-94" value="Crédito" style="rounded=0;whiteSpace=wrap;html=1;" parent="1" vertex="1">
          <mxGeometry x="2420" y="320" width="50" height="20" as="geometry" />
        </mxCell>
        <mxCell id="6mCBiXorAJk5C85nNwfz-95" value="Débito" style="rounded=0;whiteSpace=wrap;html=1;" parent="1" vertex="1">
          <mxGeometry x="2510" y="320" width="50" height="20" as="geometry" />
        </mxCell>
        <mxCell id="6mCBiXorAJk5C85nNwfz-97" value="" style="shape=flexArrow;endArrow=classic;html=1;rounded=0;" parent="1" edge="1">
          <mxGeometry width="50" height="50" relative="1" as="geometry">
            <mxPoint x="2850" y="559.5" as="sourcePoint" />
            <mxPoint x="2790" y="559.5" as="targetPoint" />
            <Array as="points">
              <mxPoint x="2810" y="559.5" />
            </Array>
          </mxGeometry>
        </mxCell>
        <mxCell id="6mCBiXorAJk5C85nNwfz-98" value="" style="shape=flexArrow;endArrow=classic;html=1;rounded=0;" parent="1" edge="1">
          <mxGeometry width="50" height="50" relative="1" as="geometry">
            <mxPoint x="2520" y="559.5" as="sourcePoint" />
            <mxPoint x="2460" y="559.5" as="targetPoint" />
            <Array as="points">
              <mxPoint x="2480" y="559.5" />
            </Array>
          </mxGeometry>
        </mxCell>
        <mxCell id="6mCBiXorAJk5C85nNwfz-99" value="" style="shape=flexArrow;endArrow=classic;html=1;rounded=0;" parent="1" edge="1">
          <mxGeometry width="50" height="50" relative="1" as="geometry">
            <mxPoint x="2200" y="570" as="sourcePoint" />
            <mxPoint x="2140" y="570" as="targetPoint" />
            <Array as="points">
              <mxPoint x="2160" y="570" />
            </Array>
          </mxGeometry>
        </mxCell>
        <mxCell id="m1h3nS5uci0i1127hkHN-1" value="" style="rounded=1;whiteSpace=wrap;html=1;fillColor=#dae8fc;strokeColor=#6c8ebf;shadow=1;" parent="1" vertex="1">
          <mxGeometry x="1040" y="700" width="320" height="620" as="geometry" />
        </mxCell>
        <mxCell id="m1h3nS5uci0i1127hkHN-2" value="Lista de Pedidos" style="ellipse;whiteSpace=wrap;html=1;" parent="1" vertex="1">
          <mxGeometry x="1144.5" y="770" width="141" height="80" as="geometry" />
        </mxCell>
        <mxCell id="m1h3nS5uci0i1127hkHN-3" value="" style="shape=table;startSize=0;container=1;collapsible=0;childLayout=tableLayout;fontSize=16;" parent="1" vertex="1">
          <mxGeometry x="1090" y="950" width="250" height="60" as="geometry" />
        </mxCell>
        <mxCell id="m1h3nS5uci0i1127hkHN-4" value="" style="shape=tableRow;horizontal=0;startSize=0;swimlaneHead=0;swimlaneBody=0;strokeColor=inherit;top=0;left=0;bottom=0;right=0;collapsible=0;dropTarget=0;fillColor=none;points=[[0,0.5],[1,0.5]];portConstraint=eastwest;fontSize=16;" parent="m1h3nS5uci0i1127hkHN-3" vertex="1">
          <mxGeometry width="250" height="20" as="geometry" />
        </mxCell>
        <mxCell id="m1h3nS5uci0i1127hkHN-5" value="prod" style="shape=partialRectangle;html=1;whiteSpace=wrap;connectable=0;strokeColor=inherit;overflow=hidden;fillColor=none;top=0;left=0;bottom=0;right=0;pointerEvents=1;fontSize=16;" parent="m1h3nS5uci0i1127hkHN-4" vertex="1">
          <mxGeometry width="83" height="20" as="geometry">
            <mxRectangle width="83" height="20" as="alternateBounds" />
          </mxGeometry>
        </mxCell>
        <mxCell id="m1h3nS5uci0i1127hkHN-6" value="quant" style="shape=partialRectangle;html=1;whiteSpace=wrap;connectable=0;strokeColor=inherit;overflow=hidden;fillColor=none;top=0;left=0;bottom=0;right=0;pointerEvents=1;fontSize=16;" parent="m1h3nS5uci0i1127hkHN-4" vertex="1">
          <mxGeometry x="83" width="84" height="20" as="geometry">
            <mxRectangle width="84" height="20" as="alternateBounds" />
          </mxGeometry>
        </mxCell>
        <mxCell id="m1h3nS5uci0i1127hkHN-7" value="valor" style="shape=partialRectangle;html=1;whiteSpace=wrap;connectable=0;strokeColor=inherit;overflow=hidden;fillColor=none;top=0;left=0;bottom=0;right=0;pointerEvents=1;fontSize=16;" parent="m1h3nS5uci0i1127hkHN-4" vertex="1">
          <mxGeometry x="167" width="83" height="20" as="geometry">
            <mxRectangle width="83" height="20" as="alternateBounds" />
          </mxGeometry>
        </mxCell>
        <mxCell id="m1h3nS5uci0i1127hkHN-8" value="" style="shape=tableRow;horizontal=0;startSize=0;swimlaneHead=0;swimlaneBody=0;strokeColor=inherit;top=0;left=0;bottom=0;right=0;collapsible=0;dropTarget=0;fillColor=none;points=[[0,0.5],[1,0.5]];portConstraint=eastwest;fontSize=16;" parent="m1h3nS5uci0i1127hkHN-3" vertex="1">
          <mxGeometry y="20" width="250" height="20" as="geometry" />
        </mxCell>
        <mxCell id="m1h3nS5uci0i1127hkHN-9" value="" style="shape=partialRectangle;html=1;whiteSpace=wrap;connectable=0;strokeColor=inherit;overflow=hidden;fillColor=none;top=0;left=0;bottom=0;right=0;pointerEvents=1;fontSize=16;" parent="m1h3nS5uci0i1127hkHN-8" vertex="1">
          <mxGeometry width="83" height="20" as="geometry">
            <mxRectangle width="83" height="20" as="alternateBounds" />
          </mxGeometry>
        </mxCell>
        <mxCell id="m1h3nS5uci0i1127hkHN-10" value="" style="shape=partialRectangle;html=1;whiteSpace=wrap;connectable=0;strokeColor=inherit;overflow=hidden;fillColor=none;top=0;left=0;bottom=0;right=0;pointerEvents=1;fontSize=16;" parent="m1h3nS5uci0i1127hkHN-8" vertex="1">
          <mxGeometry x="83" width="84" height="20" as="geometry">
            <mxRectangle width="84" height="20" as="alternateBounds" />
          </mxGeometry>
        </mxCell>
        <mxCell id="m1h3nS5uci0i1127hkHN-11" value="" style="shape=partialRectangle;html=1;whiteSpace=wrap;connectable=0;strokeColor=inherit;overflow=hidden;fillColor=none;top=0;left=0;bottom=0;right=0;pointerEvents=1;fontSize=16;" parent="m1h3nS5uci0i1127hkHN-8" vertex="1">
          <mxGeometry x="167" width="83" height="20" as="geometry">
            <mxRectangle width="83" height="20" as="alternateBounds" />
          </mxGeometry>
        </mxCell>
        <mxCell id="m1h3nS5uci0i1127hkHN-12" value="" style="shape=tableRow;horizontal=0;startSize=0;swimlaneHead=0;swimlaneBody=0;strokeColor=inherit;top=0;left=0;bottom=0;right=0;collapsible=0;dropTarget=0;fillColor=none;points=[[0,0.5],[1,0.5]];portConstraint=eastwest;fontSize=16;" parent="m1h3nS5uci0i1127hkHN-3" vertex="1">
          <mxGeometry y="40" width="250" height="20" as="geometry" />
        </mxCell>
        <mxCell id="m1h3nS5uci0i1127hkHN-13" value="" style="shape=partialRectangle;html=1;whiteSpace=wrap;connectable=0;strokeColor=inherit;overflow=hidden;fillColor=none;top=0;left=0;bottom=0;right=0;pointerEvents=1;fontSize=16;" parent="m1h3nS5uci0i1127hkHN-12" vertex="1">
          <mxGeometry width="83" height="20" as="geometry">
            <mxRectangle width="83" height="20" as="alternateBounds" />
          </mxGeometry>
        </mxCell>
        <mxCell id="m1h3nS5uci0i1127hkHN-14" value="" style="shape=partialRectangle;html=1;whiteSpace=wrap;connectable=0;strokeColor=inherit;overflow=hidden;fillColor=none;top=0;left=0;bottom=0;right=0;pointerEvents=1;fontSize=16;" parent="m1h3nS5uci0i1127hkHN-12" vertex="1">
          <mxGeometry x="83" width="84" height="20" as="geometry">
            <mxRectangle width="84" height="20" as="alternateBounds" />
          </mxGeometry>
        </mxCell>
        <mxCell id="m1h3nS5uci0i1127hkHN-15" value="" style="shape=partialRectangle;html=1;whiteSpace=wrap;connectable=0;strokeColor=inherit;overflow=hidden;fillColor=none;top=0;left=0;bottom=0;right=0;pointerEvents=1;fontSize=16;" parent="m1h3nS5uci0i1127hkHN-12" vertex="1">
          <mxGeometry x="167" width="83" height="20" as="geometry">
            <mxRectangle width="83" height="20" as="alternateBounds" />
          </mxGeometry>
        </mxCell>
        <mxCell id="m1h3nS5uci0i1127hkHN-16" value="" style="shape=table;startSize=0;container=1;collapsible=0;childLayout=tableLayout;fontSize=16;" parent="1" vertex="1">
          <mxGeometry x="1090" y="1010" width="250" height="60" as="geometry" />
        </mxCell>
        <mxCell id="m1h3nS5uci0i1127hkHN-17" value="" style="shape=tableRow;horizontal=0;startSize=0;swimlaneHead=0;swimlaneBody=0;strokeColor=inherit;top=0;left=0;bottom=0;right=0;collapsible=0;dropTarget=0;fillColor=none;points=[[0,0.5],[1,0.5]];portConstraint=eastwest;fontSize=16;" parent="m1h3nS5uci0i1127hkHN-16" vertex="1">
          <mxGeometry width="250" height="20" as="geometry" />
        </mxCell>
        <mxCell id="m1h3nS5uci0i1127hkHN-18" value="" style="shape=partialRectangle;html=1;whiteSpace=wrap;connectable=0;strokeColor=inherit;overflow=hidden;fillColor=none;top=0;left=0;bottom=0;right=0;pointerEvents=1;fontSize=16;" parent="m1h3nS5uci0i1127hkHN-17" vertex="1">
          <mxGeometry width="83" height="20" as="geometry">
            <mxRectangle width="83" height="20" as="alternateBounds" />
          </mxGeometry>
        </mxCell>
        <mxCell id="m1h3nS5uci0i1127hkHN-19" value="" style="shape=partialRectangle;html=1;whiteSpace=wrap;connectable=0;strokeColor=inherit;overflow=hidden;fillColor=none;top=0;left=0;bottom=0;right=0;pointerEvents=1;fontSize=16;" parent="m1h3nS5uci0i1127hkHN-17" vertex="1">
          <mxGeometry x="83" width="84" height="20" as="geometry">
            <mxRectangle width="84" height="20" as="alternateBounds" />
          </mxGeometry>
        </mxCell>
        <mxCell id="m1h3nS5uci0i1127hkHN-20" value="" style="shape=partialRectangle;html=1;whiteSpace=wrap;connectable=0;strokeColor=inherit;overflow=hidden;fillColor=none;top=0;left=0;bottom=0;right=0;pointerEvents=1;fontSize=16;" parent="m1h3nS5uci0i1127hkHN-17" vertex="1">
          <mxGeometry x="167" width="83" height="20" as="geometry">
            <mxRectangle width="83" height="20" as="alternateBounds" />
          </mxGeometry>
        </mxCell>
        <mxCell id="m1h3nS5uci0i1127hkHN-21" value="" style="shape=tableRow;horizontal=0;startSize=0;swimlaneHead=0;swimlaneBody=0;strokeColor=inherit;top=0;left=0;bottom=0;right=0;collapsible=0;dropTarget=0;fillColor=none;points=[[0,0.5],[1,0.5]];portConstraint=eastwest;fontSize=16;" parent="m1h3nS5uci0i1127hkHN-16" vertex="1">
          <mxGeometry y="20" width="250" height="20" as="geometry" />
        </mxCell>
        <mxCell id="m1h3nS5uci0i1127hkHN-22" value="" style="shape=partialRectangle;html=1;whiteSpace=wrap;connectable=0;strokeColor=inherit;overflow=hidden;fillColor=none;top=0;left=0;bottom=0;right=0;pointerEvents=1;fontSize=16;" parent="m1h3nS5uci0i1127hkHN-21" vertex="1">
          <mxGeometry width="83" height="20" as="geometry">
            <mxRectangle width="83" height="20" as="alternateBounds" />
          </mxGeometry>
        </mxCell>
        <mxCell id="m1h3nS5uci0i1127hkHN-23" value="" style="shape=partialRectangle;html=1;whiteSpace=wrap;connectable=0;strokeColor=inherit;overflow=hidden;fillColor=none;top=0;left=0;bottom=0;right=0;pointerEvents=1;fontSize=16;" parent="m1h3nS5uci0i1127hkHN-21" vertex="1">
          <mxGeometry x="83" width="84" height="20" as="geometry">
            <mxRectangle width="84" height="20" as="alternateBounds" />
          </mxGeometry>
        </mxCell>
        <mxCell id="m1h3nS5uci0i1127hkHN-24" value="" style="shape=partialRectangle;html=1;whiteSpace=wrap;connectable=0;strokeColor=inherit;overflow=hidden;fillColor=none;top=0;left=0;bottom=0;right=0;pointerEvents=1;fontSize=16;" parent="m1h3nS5uci0i1127hkHN-21" vertex="1">
          <mxGeometry x="167" width="83" height="20" as="geometry">
            <mxRectangle width="83" height="20" as="alternateBounds" />
          </mxGeometry>
        </mxCell>
        <mxCell id="m1h3nS5uci0i1127hkHN-25" value="" style="shape=tableRow;horizontal=0;startSize=0;swimlaneHead=0;swimlaneBody=0;strokeColor=inherit;top=0;left=0;bottom=0;right=0;collapsible=0;dropTarget=0;fillColor=none;points=[[0,0.5],[1,0.5]];portConstraint=eastwest;fontSize=16;" parent="m1h3nS5uci0i1127hkHN-16" vertex="1">
          <mxGeometry y="40" width="250" height="20" as="geometry" />
        </mxCell>
        <mxCell id="m1h3nS5uci0i1127hkHN-26" value="" style="shape=partialRectangle;html=1;whiteSpace=wrap;connectable=0;strokeColor=inherit;overflow=hidden;fillColor=none;top=0;left=0;bottom=0;right=0;pointerEvents=1;fontSize=16;" parent="m1h3nS5uci0i1127hkHN-25" vertex="1">
          <mxGeometry width="83" height="20" as="geometry">
            <mxRectangle width="83" height="20" as="alternateBounds" />
          </mxGeometry>
        </mxCell>
        <mxCell id="m1h3nS5uci0i1127hkHN-27" value="" style="shape=partialRectangle;html=1;whiteSpace=wrap;connectable=0;strokeColor=inherit;overflow=hidden;fillColor=none;top=0;left=0;bottom=0;right=0;pointerEvents=1;fontSize=16;" parent="m1h3nS5uci0i1127hkHN-25" vertex="1">
          <mxGeometry x="83" width="84" height="20" as="geometry">
            <mxRectangle width="84" height="20" as="alternateBounds" />
          </mxGeometry>
        </mxCell>
        <mxCell id="m1h3nS5uci0i1127hkHN-28" value="" style="shape=partialRectangle;html=1;whiteSpace=wrap;connectable=0;strokeColor=inherit;overflow=hidden;fillColor=none;top=0;left=0;bottom=0;right=0;pointerEvents=1;fontSize=16;" parent="m1h3nS5uci0i1127hkHN-25" vertex="1">
          <mxGeometry x="167" width="83" height="20" as="geometry">
            <mxRectangle width="83" height="20" as="alternateBounds" />
          </mxGeometry>
        </mxCell>
        <mxCell id="m1h3nS5uci0i1127hkHN-29" value="" style="shape=table;startSize=0;container=1;collapsible=0;childLayout=tableLayout;fontSize=16;" parent="1" vertex="1">
          <mxGeometry x="1090" y="1070" width="250" height="60" as="geometry" />
        </mxCell>
        <mxCell id="m1h3nS5uci0i1127hkHN-30" value="" style="shape=tableRow;horizontal=0;startSize=0;swimlaneHead=0;swimlaneBody=0;strokeColor=inherit;top=0;left=0;bottom=0;right=0;collapsible=0;dropTarget=0;fillColor=none;points=[[0,0.5],[1,0.5]];portConstraint=eastwest;fontSize=16;" parent="m1h3nS5uci0i1127hkHN-29" vertex="1">
          <mxGeometry width="250" height="20" as="geometry" />
        </mxCell>
        <mxCell id="m1h3nS5uci0i1127hkHN-31" value="" style="shape=partialRectangle;html=1;whiteSpace=wrap;connectable=0;strokeColor=inherit;overflow=hidden;fillColor=none;top=0;left=0;bottom=0;right=0;pointerEvents=1;fontSize=16;" parent="m1h3nS5uci0i1127hkHN-30" vertex="1">
          <mxGeometry width="83" height="20" as="geometry">
            <mxRectangle width="83" height="20" as="alternateBounds" />
          </mxGeometry>
        </mxCell>
        <mxCell id="m1h3nS5uci0i1127hkHN-32" value="" style="shape=partialRectangle;html=1;whiteSpace=wrap;connectable=0;strokeColor=inherit;overflow=hidden;fillColor=none;top=0;left=0;bottom=0;right=0;pointerEvents=1;fontSize=16;" parent="m1h3nS5uci0i1127hkHN-30" vertex="1">
          <mxGeometry x="83" width="84" height="20" as="geometry">
            <mxRectangle width="84" height="20" as="alternateBounds" />
          </mxGeometry>
        </mxCell>
        <mxCell id="m1h3nS5uci0i1127hkHN-33" value="" style="shape=partialRectangle;html=1;whiteSpace=wrap;connectable=0;strokeColor=inherit;overflow=hidden;fillColor=none;top=0;left=0;bottom=0;right=0;pointerEvents=1;fontSize=16;" parent="m1h3nS5uci0i1127hkHN-30" vertex="1">
          <mxGeometry x="167" width="83" height="20" as="geometry">
            <mxRectangle width="83" height="20" as="alternateBounds" />
          </mxGeometry>
        </mxCell>
        <mxCell id="m1h3nS5uci0i1127hkHN-34" value="" style="shape=tableRow;horizontal=0;startSize=0;swimlaneHead=0;swimlaneBody=0;strokeColor=inherit;top=0;left=0;bottom=0;right=0;collapsible=0;dropTarget=0;fillColor=none;points=[[0,0.5],[1,0.5]];portConstraint=eastwest;fontSize=16;" parent="m1h3nS5uci0i1127hkHN-29" vertex="1">
          <mxGeometry y="20" width="250" height="20" as="geometry" />
        </mxCell>
        <mxCell id="m1h3nS5uci0i1127hkHN-35" value="" style="shape=partialRectangle;html=1;whiteSpace=wrap;connectable=0;strokeColor=inherit;overflow=hidden;fillColor=none;top=0;left=0;bottom=0;right=0;pointerEvents=1;fontSize=16;" parent="m1h3nS5uci0i1127hkHN-34" vertex="1">
          <mxGeometry width="83" height="20" as="geometry">
            <mxRectangle width="83" height="20" as="alternateBounds" />
          </mxGeometry>
        </mxCell>
        <mxCell id="m1h3nS5uci0i1127hkHN-36" value="" style="shape=partialRectangle;html=1;whiteSpace=wrap;connectable=0;strokeColor=inherit;overflow=hidden;fillColor=none;top=0;left=0;bottom=0;right=0;pointerEvents=1;fontSize=16;" parent="m1h3nS5uci0i1127hkHN-34" vertex="1">
          <mxGeometry x="83" width="84" height="20" as="geometry">
            <mxRectangle width="84" height="20" as="alternateBounds" />
          </mxGeometry>
        </mxCell>
        <mxCell id="m1h3nS5uci0i1127hkHN-37" value="" style="shape=partialRectangle;html=1;whiteSpace=wrap;connectable=0;strokeColor=inherit;overflow=hidden;fillColor=none;top=0;left=0;bottom=0;right=0;pointerEvents=1;fontSize=16;" parent="m1h3nS5uci0i1127hkHN-34" vertex="1">
          <mxGeometry x="167" width="83" height="20" as="geometry">
            <mxRectangle width="83" height="20" as="alternateBounds" />
          </mxGeometry>
        </mxCell>
        <mxCell id="m1h3nS5uci0i1127hkHN-38" value="" style="shape=tableRow;horizontal=0;startSize=0;swimlaneHead=0;swimlaneBody=0;strokeColor=inherit;top=0;left=0;bottom=0;right=0;collapsible=0;dropTarget=0;fillColor=none;points=[[0,0.5],[1,0.5]];portConstraint=eastwest;fontSize=16;" parent="m1h3nS5uci0i1127hkHN-29" vertex="1">
          <mxGeometry y="40" width="250" height="20" as="geometry" />
        </mxCell>
        <mxCell id="m1h3nS5uci0i1127hkHN-39" value="" style="shape=partialRectangle;html=1;whiteSpace=wrap;connectable=0;strokeColor=inherit;overflow=hidden;fillColor=none;top=0;left=0;bottom=0;right=0;pointerEvents=1;fontSize=16;" parent="m1h3nS5uci0i1127hkHN-38" vertex="1">
          <mxGeometry width="83" height="20" as="geometry">
            <mxRectangle width="83" height="20" as="alternateBounds" />
          </mxGeometry>
        </mxCell>
        <mxCell id="m1h3nS5uci0i1127hkHN-40" value="" style="shape=partialRectangle;html=1;whiteSpace=wrap;connectable=0;strokeColor=inherit;overflow=hidden;fillColor=none;top=0;left=0;bottom=0;right=0;pointerEvents=1;fontSize=16;" parent="m1h3nS5uci0i1127hkHN-38" vertex="1">
          <mxGeometry x="83" width="84" height="20" as="geometry">
            <mxRectangle width="84" height="20" as="alternateBounds" />
          </mxGeometry>
        </mxCell>
        <mxCell id="m1h3nS5uci0i1127hkHN-41" value="" style="shape=partialRectangle;html=1;whiteSpace=wrap;connectable=0;strokeColor=inherit;overflow=hidden;fillColor=none;top=0;left=0;bottom=0;right=0;pointerEvents=1;fontSize=16;" parent="m1h3nS5uci0i1127hkHN-38" vertex="1">
          <mxGeometry x="167" width="83" height="20" as="geometry">
            <mxRectangle width="83" height="20" as="alternateBounds" />
          </mxGeometry>
        </mxCell>
        <mxCell id="m1h3nS5uci0i1127hkHN-42" value="" style="shape=table;startSize=0;container=1;collapsible=0;childLayout=tableLayout;fontSize=16;" parent="1" vertex="1">
          <mxGeometry x="1090" y="1130" width="250" height="60" as="geometry" />
        </mxCell>
        <mxCell id="m1h3nS5uci0i1127hkHN-43" value="" style="shape=tableRow;horizontal=0;startSize=0;swimlaneHead=0;swimlaneBody=0;strokeColor=inherit;top=0;left=0;bottom=0;right=0;collapsible=0;dropTarget=0;fillColor=none;points=[[0,0.5],[1,0.5]];portConstraint=eastwest;fontSize=16;" parent="m1h3nS5uci0i1127hkHN-42" vertex="1">
          <mxGeometry width="250" height="20" as="geometry" />
        </mxCell>
        <mxCell id="m1h3nS5uci0i1127hkHN-44" value="" style="shape=partialRectangle;html=1;whiteSpace=wrap;connectable=0;strokeColor=inherit;overflow=hidden;fillColor=none;top=0;left=0;bottom=0;right=0;pointerEvents=1;fontSize=16;" parent="m1h3nS5uci0i1127hkHN-43" vertex="1">
          <mxGeometry width="83" height="20" as="geometry">
            <mxRectangle width="83" height="20" as="alternateBounds" />
          </mxGeometry>
        </mxCell>
        <mxCell id="m1h3nS5uci0i1127hkHN-45" value="" style="shape=partialRectangle;html=1;whiteSpace=wrap;connectable=0;strokeColor=inherit;overflow=hidden;fillColor=none;top=0;left=0;bottom=0;right=0;pointerEvents=1;fontSize=16;" parent="m1h3nS5uci0i1127hkHN-43" vertex="1">
          <mxGeometry x="83" width="84" height="20" as="geometry">
            <mxRectangle width="84" height="20" as="alternateBounds" />
          </mxGeometry>
        </mxCell>
        <mxCell id="m1h3nS5uci0i1127hkHN-46" value="" style="shape=partialRectangle;html=1;whiteSpace=wrap;connectable=0;strokeColor=inherit;overflow=hidden;fillColor=none;top=0;left=0;bottom=0;right=0;pointerEvents=1;fontSize=16;" parent="m1h3nS5uci0i1127hkHN-43" vertex="1">
          <mxGeometry x="167" width="83" height="20" as="geometry">
            <mxRectangle width="83" height="20" as="alternateBounds" />
          </mxGeometry>
        </mxCell>
        <mxCell id="m1h3nS5uci0i1127hkHN-47" value="" style="shape=tableRow;horizontal=0;startSize=0;swimlaneHead=0;swimlaneBody=0;strokeColor=inherit;top=0;left=0;bottom=0;right=0;collapsible=0;dropTarget=0;fillColor=none;points=[[0,0.5],[1,0.5]];portConstraint=eastwest;fontSize=16;" parent="m1h3nS5uci0i1127hkHN-42" vertex="1">
          <mxGeometry y="20" width="250" height="20" as="geometry" />
        </mxCell>
        <mxCell id="m1h3nS5uci0i1127hkHN-48" value="" style="shape=partialRectangle;html=1;whiteSpace=wrap;connectable=0;strokeColor=inherit;overflow=hidden;fillColor=none;top=0;left=0;bottom=0;right=0;pointerEvents=1;fontSize=16;" parent="m1h3nS5uci0i1127hkHN-47" vertex="1">
          <mxGeometry width="83" height="20" as="geometry">
            <mxRectangle width="83" height="20" as="alternateBounds" />
          </mxGeometry>
        </mxCell>
        <mxCell id="m1h3nS5uci0i1127hkHN-49" value="" style="shape=partialRectangle;html=1;whiteSpace=wrap;connectable=0;strokeColor=inherit;overflow=hidden;fillColor=none;top=0;left=0;bottom=0;right=0;pointerEvents=1;fontSize=16;" parent="m1h3nS5uci0i1127hkHN-47" vertex="1">
          <mxGeometry x="83" width="84" height="20" as="geometry">
            <mxRectangle width="84" height="20" as="alternateBounds" />
          </mxGeometry>
        </mxCell>
        <mxCell id="m1h3nS5uci0i1127hkHN-50" value="" style="shape=partialRectangle;html=1;whiteSpace=wrap;connectable=0;strokeColor=inherit;overflow=hidden;fillColor=none;top=0;left=0;bottom=0;right=0;pointerEvents=1;fontSize=16;" parent="m1h3nS5uci0i1127hkHN-47" vertex="1">
          <mxGeometry x="167" width="83" height="20" as="geometry">
            <mxRectangle width="83" height="20" as="alternateBounds" />
          </mxGeometry>
        </mxCell>
        <mxCell id="m1h3nS5uci0i1127hkHN-51" value="" style="shape=tableRow;horizontal=0;startSize=0;swimlaneHead=0;swimlaneBody=0;strokeColor=inherit;top=0;left=0;bottom=0;right=0;collapsible=0;dropTarget=0;fillColor=none;points=[[0,0.5],[1,0.5]];portConstraint=eastwest;fontSize=16;" parent="m1h3nS5uci0i1127hkHN-42" vertex="1">
          <mxGeometry y="40" width="250" height="20" as="geometry" />
        </mxCell>
        <mxCell id="m1h3nS5uci0i1127hkHN-52" value="" style="shape=partialRectangle;html=1;whiteSpace=wrap;connectable=0;strokeColor=inherit;overflow=hidden;fillColor=none;top=0;left=0;bottom=0;right=0;pointerEvents=1;fontSize=16;" parent="m1h3nS5uci0i1127hkHN-51" vertex="1">
          <mxGeometry width="83" height="20" as="geometry">
            <mxRectangle width="83" height="20" as="alternateBounds" />
          </mxGeometry>
        </mxCell>
        <mxCell id="m1h3nS5uci0i1127hkHN-53" value="" style="shape=partialRectangle;html=1;whiteSpace=wrap;connectable=0;strokeColor=inherit;overflow=hidden;fillColor=none;top=0;left=0;bottom=0;right=0;pointerEvents=1;fontSize=16;" parent="m1h3nS5uci0i1127hkHN-51" vertex="1">
          <mxGeometry x="83" width="84" height="20" as="geometry">
            <mxRectangle width="84" height="20" as="alternateBounds" />
          </mxGeometry>
        </mxCell>
        <mxCell id="m1h3nS5uci0i1127hkHN-54" value="" style="shape=partialRectangle;html=1;whiteSpace=wrap;connectable=0;strokeColor=inherit;overflow=hidden;fillColor=none;top=0;left=0;bottom=0;right=0;pointerEvents=1;fontSize=16;" parent="m1h3nS5uci0i1127hkHN-51" vertex="1">
          <mxGeometry x="167" width="83" height="20" as="geometry">
            <mxRectangle width="83" height="20" as="alternateBounds" />
          </mxGeometry>
        </mxCell>
        <mxCell id="m1h3nS5uci0i1127hkHN-55" value="" style="shape=flexArrow;endArrow=classic;html=1;rounded=0;" parent="1" edge="1">
          <mxGeometry width="50" height="50" relative="1" as="geometry">
            <mxPoint x="1232.5" y="1230" as="sourcePoint" />
            <mxPoint x="1292.5" y="1230" as="targetPoint" />
            <Array as="points">
              <mxPoint x="1252.5" y="1230" />
            </Array>
          </mxGeometry>
        </mxCell>
        <mxCell id="m1h3nS5uci0i1127hkHN-56" value="" style="shape=flexArrow;endArrow=classic;html=1;rounded=0;" parent="1" edge="1">
          <mxGeometry width="50" height="50" relative="1" as="geometry">
            <mxPoint x="1197.5" y="1230" as="sourcePoint" />
            <mxPoint x="1137.5" y="1230" as="targetPoint" />
            <Array as="points">
              <mxPoint x="1157.5" y="1230" />
            </Array>
          </mxGeometry>
        </mxCell>
        <mxCell id="m1h3nS5uci0i1127hkHN-57" value="Informações Necessárias" style="text;html=1;align=center;verticalAlign=middle;whiteSpace=wrap;rounded=0;" parent="1" vertex="1">
          <mxGeometry x="1135" y="910" width="160" height="30" as="geometry" />
        </mxCell>
        <mxCell id="m1h3nS5uci0i1127hkHN-79" value="" style="rounded=1;whiteSpace=wrap;html=1;fillColor=#dae8fc;strokeColor=#6c8ebf;shadow=1;" parent="1" vertex="1">
          <mxGeometry x="1360" y="700" width="320" height="620" as="geometry" />
        </mxCell>
        <mxCell id="m1h3nS5uci0i1127hkHN-80" value="Cadastro de Pedidos" style="ellipse;whiteSpace=wrap;html=1;" parent="1" vertex="1">
          <mxGeometry x="1440" y="780" width="160" height="80" as="geometry" />
        </mxCell>
        <mxCell id="m1h3nS5uci0i1127hkHN-81" value="" style="shape=flexArrow;endArrow=classic;html=1;rounded=0;" parent="1" edge="1">
          <mxGeometry width="50" height="50" relative="1" as="geometry">
            <mxPoint x="1530" y="1230" as="sourcePoint" />
            <mxPoint x="1590" y="1230" as="targetPoint" />
            <Array as="points">
              <mxPoint x="1550" y="1230" />
            </Array>
          </mxGeometry>
        </mxCell>
        <mxCell id="m1h3nS5uci0i1127hkHN-82" value="" style="shape=flexArrow;endArrow=classic;html=1;rounded=0;" parent="1" edge="1">
          <mxGeometry width="50" height="50" relative="1" as="geometry">
            <mxPoint x="1500" y="1230" as="sourcePoint" />
            <mxPoint x="1440" y="1230" as="targetPoint" />
            <Array as="points">
              <mxPoint x="1460" y="1230" />
            </Array>
          </mxGeometry>
        </mxCell>
        <mxCell id="m1h3nS5uci0i1127hkHN-83" value="" style="shape=table;startSize=0;container=1;collapsible=0;childLayout=tableLayout;fontSize=16;" parent="1" vertex="1">
          <mxGeometry x="1395" y="1010" width="250" height="20" as="geometry" />
        </mxCell>
        <mxCell id="m1h3nS5uci0i1127hkHN-84" value="" style="shape=tableRow;horizontal=0;startSize=0;swimlaneHead=0;swimlaneBody=0;strokeColor=inherit;top=0;left=0;bottom=0;right=0;collapsible=0;dropTarget=0;fillColor=none;points=[[0,0.5],[1,0.5]];portConstraint=eastwest;fontSize=16;" parent="m1h3nS5uci0i1127hkHN-83" vertex="1">
          <mxGeometry width="250" height="20" as="geometry" />
        </mxCell>
        <mxCell id="m1h3nS5uci0i1127hkHN-85" value="valor" style="shape=partialRectangle;html=1;whiteSpace=wrap;connectable=0;strokeColor=inherit;overflow=hidden;fillColor=none;top=0;left=0;bottom=0;right=0;pointerEvents=1;fontSize=16;" parent="m1h3nS5uci0i1127hkHN-84" vertex="1">
          <mxGeometry width="135" height="20" as="geometry">
            <mxRectangle width="135" height="20" as="alternateBounds" />
          </mxGeometry>
        </mxCell>
        <mxCell id="m1h3nS5uci0i1127hkHN-86" value="" style="shape=partialRectangle;html=1;whiteSpace=wrap;connectable=0;strokeColor=inherit;overflow=hidden;fillColor=none;top=0;left=0;bottom=0;right=0;pointerEvents=1;fontSize=16;" parent="m1h3nS5uci0i1127hkHN-84" vertex="1">
          <mxGeometry x="135" width="50" height="20" as="geometry">
            <mxRectangle width="50" height="20" as="alternateBounds" />
          </mxGeometry>
        </mxCell>
        <mxCell id="m1h3nS5uci0i1127hkHN-87" value="" style="shape=partialRectangle;html=1;whiteSpace=wrap;connectable=0;strokeColor=inherit;overflow=hidden;fillColor=none;top=0;left=0;bottom=0;right=0;pointerEvents=1;fontSize=16;" parent="m1h3nS5uci0i1127hkHN-84" vertex="1">
          <mxGeometry x="185" width="65" height="20" as="geometry">
            <mxRectangle width="65" height="20" as="alternateBounds" />
          </mxGeometry>
        </mxCell>
        <mxCell id="m1h3nS5uci0i1127hkHN-88" value="" style="shape=table;startSize=0;container=1;collapsible=0;childLayout=tableLayout;fontSize=16;" parent="1" vertex="1">
          <mxGeometry x="1395" y="950" width="250" height="60" as="geometry" />
        </mxCell>
        <mxCell id="m1h3nS5uci0i1127hkHN-89" value="" style="shape=tableRow;horizontal=0;startSize=0;swimlaneHead=0;swimlaneBody=0;strokeColor=inherit;top=0;left=0;bottom=0;right=0;collapsible=0;dropTarget=0;fillColor=none;points=[[0,0.5],[1,0.5]];portConstraint=eastwest;fontSize=16;" parent="m1h3nS5uci0i1127hkHN-88" vertex="1">
          <mxGeometry width="250" height="20" as="geometry" />
        </mxCell>
        <mxCell id="m1h3nS5uci0i1127hkHN-90" value="nome do cliente" style="shape=partialRectangle;html=1;whiteSpace=wrap;connectable=0;strokeColor=inherit;overflow=hidden;fillColor=none;top=0;left=0;bottom=0;right=0;pointerEvents=1;fontSize=16;" parent="m1h3nS5uci0i1127hkHN-89" vertex="1">
          <mxGeometry width="135" height="20" as="geometry">
            <mxRectangle width="135" height="20" as="alternateBounds" />
          </mxGeometry>
        </mxCell>
        <mxCell id="m1h3nS5uci0i1127hkHN-91" value="" style="shape=partialRectangle;html=1;whiteSpace=wrap;connectable=0;strokeColor=inherit;overflow=hidden;fillColor=none;top=0;left=0;bottom=0;right=0;pointerEvents=1;fontSize=16;" parent="m1h3nS5uci0i1127hkHN-89" vertex="1">
          <mxGeometry x="135" width="50" height="20" as="geometry">
            <mxRectangle width="50" height="20" as="alternateBounds" />
          </mxGeometry>
        </mxCell>
        <mxCell id="m1h3nS5uci0i1127hkHN-92" value="" style="shape=partialRectangle;html=1;whiteSpace=wrap;connectable=0;strokeColor=inherit;overflow=hidden;fillColor=none;top=0;left=0;bottom=0;right=0;pointerEvents=1;fontSize=16;" parent="m1h3nS5uci0i1127hkHN-89" vertex="1">
          <mxGeometry x="185" width="65" height="20" as="geometry">
            <mxRectangle width="65" height="20" as="alternateBounds" />
          </mxGeometry>
        </mxCell>
        <mxCell id="m1h3nS5uci0i1127hkHN-93" value="" style="shape=tableRow;horizontal=0;startSize=0;swimlaneHead=0;swimlaneBody=0;strokeColor=inherit;top=0;left=0;bottom=0;right=0;collapsible=0;dropTarget=0;fillColor=none;points=[[0,0.5],[1,0.5]];portConstraint=eastwest;fontSize=16;" parent="m1h3nS5uci0i1127hkHN-88" vertex="1">
          <mxGeometry y="20" width="250" height="20" as="geometry" />
        </mxCell>
        <mxCell id="m1h3nS5uci0i1127hkHN-94" value="prod" style="shape=partialRectangle;html=1;whiteSpace=wrap;connectable=0;strokeColor=inherit;overflow=hidden;fillColor=none;top=0;left=0;bottom=0;right=0;pointerEvents=1;fontSize=16;" parent="m1h3nS5uci0i1127hkHN-93" vertex="1">
          <mxGeometry width="135" height="20" as="geometry">
            <mxRectangle width="135" height="20" as="alternateBounds" />
          </mxGeometry>
        </mxCell>
        <mxCell id="m1h3nS5uci0i1127hkHN-95" value="" style="shape=partialRectangle;html=1;whiteSpace=wrap;connectable=0;strokeColor=inherit;overflow=hidden;fillColor=none;top=0;left=0;bottom=0;right=0;pointerEvents=1;fontSize=16;" parent="m1h3nS5uci0i1127hkHN-93" vertex="1">
          <mxGeometry x="135" width="50" height="20" as="geometry">
            <mxRectangle width="50" height="20" as="alternateBounds" />
          </mxGeometry>
        </mxCell>
        <mxCell id="m1h3nS5uci0i1127hkHN-96" value="" style="shape=partialRectangle;html=1;whiteSpace=wrap;connectable=0;strokeColor=inherit;overflow=hidden;fillColor=none;top=0;left=0;bottom=0;right=0;pointerEvents=1;fontSize=16;" parent="m1h3nS5uci0i1127hkHN-93" vertex="1">
          <mxGeometry x="185" width="65" height="20" as="geometry">
            <mxRectangle width="65" height="20" as="alternateBounds" />
          </mxGeometry>
        </mxCell>
        <mxCell id="m1h3nS5uci0i1127hkHN-97" value="" style="shape=tableRow;horizontal=0;startSize=0;swimlaneHead=0;swimlaneBody=0;strokeColor=inherit;top=0;left=0;bottom=0;right=0;collapsible=0;dropTarget=0;fillColor=none;points=[[0,0.5],[1,0.5]];portConstraint=eastwest;fontSize=16;" parent="m1h3nS5uci0i1127hkHN-88" vertex="1">
          <mxGeometry y="40" width="250" height="20" as="geometry" />
        </mxCell>
        <mxCell id="m1h3nS5uci0i1127hkHN-98" value="quant" style="shape=partialRectangle;html=1;whiteSpace=wrap;connectable=0;strokeColor=inherit;overflow=hidden;fillColor=none;top=0;left=0;bottom=0;right=0;pointerEvents=1;fontSize=16;" parent="m1h3nS5uci0i1127hkHN-97" vertex="1">
          <mxGeometry width="135" height="20" as="geometry">
            <mxRectangle width="135" height="20" as="alternateBounds" />
          </mxGeometry>
        </mxCell>
        <mxCell id="m1h3nS5uci0i1127hkHN-99" value="" style="shape=partialRectangle;html=1;whiteSpace=wrap;connectable=0;strokeColor=inherit;overflow=hidden;fillColor=none;top=0;left=0;bottom=0;right=0;pointerEvents=1;fontSize=16;" parent="m1h3nS5uci0i1127hkHN-97" vertex="1">
          <mxGeometry x="135" width="50" height="20" as="geometry">
            <mxRectangle width="50" height="20" as="alternateBounds" />
          </mxGeometry>
        </mxCell>
        <mxCell id="m1h3nS5uci0i1127hkHN-100" value="" style="shape=partialRectangle;html=1;whiteSpace=wrap;connectable=0;strokeColor=inherit;overflow=hidden;fillColor=none;top=0;left=0;bottom=0;right=0;pointerEvents=1;fontSize=16;" parent="m1h3nS5uci0i1127hkHN-97" vertex="1">
          <mxGeometry x="185" width="65" height="20" as="geometry">
            <mxRectangle width="65" height="20" as="alternateBounds" />
          </mxGeometry>
        </mxCell>
        <mxCell id="m1h3nS5uci0i1127hkHN-101" value="" style="rounded=1;whiteSpace=wrap;html=1;fillColor=#dae8fc;strokeColor=#6c8ebf;shadow=1;" parent="1" vertex="1">
          <mxGeometry x="1680" y="700" width="320" height="620" as="geometry" />
        </mxCell>
        <mxCell id="m1h3nS5uci0i1127hkHN-102" value="Realização do Pagamento" style="ellipse;whiteSpace=wrap;html=1;" parent="1" vertex="1">
          <mxGeometry x="1760" y="780" width="160" height="80" as="geometry" />
        </mxCell>
        <mxCell id="m1h3nS5uci0i1127hkHN-103" value="Dinheiro&lt;span style=&quot;color: rgba(0, 0, 0, 0); font-family: monospace; font-size: 0px; text-align: start; text-wrap: nowrap;&quot;&gt;%3CmxGraphModel%3E%3Croot%3E%3CmxCell%20id%3D%220%22%2F%3E%3CmxCell%20id%3D%221%22%20parent%3D%220%22%2F%3E%3CmxCell%20id%3D%222%22%20value%3D%22Atualizar%22%20style%3D%22rounded%3D0%3BwhiteSpace%3Dwrap%3Bhtml%3D1%3Bshadow%3D1%3B%22%20vertex%3D%221%22%20parent%3D%221%22%3E%3CmxGeometry%20x%3D%22500%22%20y%3D%22550%22%20width%3D%22130%22%20height%3D%2220%22%20as%3D%22geometry%22%2F%3E%3C%2FmxCell%3E%3C%2Froot%3E%3C%2FmxGraphModel%3E&lt;/span&gt;" style="rounded=0;whiteSpace=wrap;html=1;shadow=1;" parent="1" vertex="1">
          <mxGeometry x="1775" y="950" width="130" height="20" as="geometry" />
        </mxCell>
        <mxCell id="m1h3nS5uci0i1127hkHN-104" value="Cartão&amp;nbsp;" style="rounded=0;whiteSpace=wrap;html=1;shadow=1;" parent="1" vertex="1">
          <mxGeometry x="1775" y="980" width="130" height="20" as="geometry" />
        </mxCell>
        <mxCell id="m1h3nS5uci0i1127hkHN-105" value="Pix" style="rounded=0;whiteSpace=wrap;html=1;shadow=1;" parent="1" vertex="1">
          <mxGeometry x="1775" y="1010" width="130" height="20" as="geometry" />
        </mxCell>
        <mxCell id="m1h3nS5uci0i1127hkHN-106" value="" style="shape=flexArrow;endArrow=classic;html=1;rounded=0;" parent="1" edge="1">
          <mxGeometry width="50" height="50" relative="1" as="geometry">
            <mxPoint x="1860" y="1230" as="sourcePoint" />
            <mxPoint x="1920" y="1230" as="targetPoint" />
            <Array as="points">
              <mxPoint x="1880" y="1230" />
            </Array>
          </mxGeometry>
        </mxCell>
        <mxCell id="m1h3nS5uci0i1127hkHN-107" value="" style="shape=flexArrow;endArrow=classic;html=1;rounded=0;" parent="1" edge="1">
          <mxGeometry width="50" height="50" relative="1" as="geometry">
            <mxPoint x="1820" y="1230" as="sourcePoint" />
            <mxPoint x="1760" y="1230" as="targetPoint" />
            <Array as="points">
              <mxPoint x="1780" y="1230" />
            </Array>
          </mxGeometry>
        </mxCell>
        <mxCell id="m1h3nS5uci0i1127hkHN-115" value="" style="rounded=1;whiteSpace=wrap;html=1;fillColor=#dae8fc;strokeColor=#6c8ebf;shadow=1;" parent="1" vertex="1">
          <mxGeometry x="2000" y="700" width="320" height="620" as="geometry" />
        </mxCell>
        <mxCell id="m1h3nS5uci0i1127hkHN-116" value="Precisa de Troco?" style="rounded=1;whiteSpace=wrap;html=1;" parent="1" vertex="1">
          <mxGeometry x="2050" y="870" width="220" height="130" as="geometry" />
        </mxCell>
        <mxCell id="m1h3nS5uci0i1127hkHN-117" value="Sim" style="rounded=0;whiteSpace=wrap;html=1;" parent="1" vertex="1">
          <mxGeometry x="2090" y="960" width="50" height="20" as="geometry" />
        </mxCell>
        <mxCell id="m1h3nS5uci0i1127hkHN-118" value="Não" style="rounded=0;whiteSpace=wrap;html=1;" parent="1" vertex="1">
          <mxGeometry x="2180" y="960" width="50" height="20" as="geometry" />
        </mxCell>
        <mxCell id="m1h3nS5uci0i1127hkHN-119" value="Se sim,quanto?" style="rounded=1;whiteSpace=wrap;html=1;" parent="1" vertex="1">
          <mxGeometry x="2050" y="1020" width="220" height="130" as="geometry" />
        </mxCell>
        <mxCell id="m1h3nS5uci0i1127hkHN-120" value="R$ 00,00" style="rounded=0;whiteSpace=wrap;html=1;" parent="1" vertex="1">
          <mxGeometry x="2130" y="1100" width="60" height="20" as="geometry" />
        </mxCell>
        <mxCell id="m1h3nS5uci0i1127hkHN-121" value="Dinheiro" style="ellipse;whiteSpace=wrap;html=1;" parent="1" vertex="1">
          <mxGeometry x="2080" y="760" width="160" height="80" as="geometry" />
        </mxCell>
        <mxCell id="m1h3nS5uci0i1127hkHN-122" value="" style="shape=flexArrow;endArrow=classic;html=1;rounded=0;" parent="1" edge="1">
          <mxGeometry width="50" height="50" relative="1" as="geometry">
            <mxPoint x="2190" y="1230" as="sourcePoint" />
            <mxPoint x="2130" y="1230" as="targetPoint" />
            <Array as="points">
              <mxPoint x="2150" y="1230" />
            </Array>
          </mxGeometry>
        </mxCell>
        <mxCell id="m1h3nS5uci0i1127hkHN-123" value="" style="rounded=1;whiteSpace=wrap;html=1;fillColor=#dae8fc;strokeColor=#6c8ebf;shadow=1;" parent="1" vertex="1">
          <mxGeometry x="2320" y="700" width="320" height="620" as="geometry" />
        </mxCell>
        <mxCell id="m1h3nS5uci0i1127hkHN-124" value="Cartão" style="ellipse;whiteSpace=wrap;html=1;" parent="1" vertex="1">
          <mxGeometry x="2400" y="760" width="160" height="80" as="geometry" />
        </mxCell>
        <mxCell id="m1h3nS5uci0i1127hkHN-125" value="" style="rounded=1;whiteSpace=wrap;html=1;fillColor=#dae8fc;strokeColor=#6c8ebf;shadow=1;" parent="1" vertex="1">
          <mxGeometry x="2640" y="700" width="320" height="620" as="geometry" />
        </mxCell>
        <mxCell id="m1h3nS5uci0i1127hkHN-126" value="Pix" style="ellipse;whiteSpace=wrap;html=1;" parent="1" vertex="1">
          <mxGeometry x="2720" y="760" width="160" height="80" as="geometry" />
        </mxCell>
        <mxCell id="m1h3nS5uci0i1127hkHN-127" value="Chave Pix:" style="text;html=1;align=center;verticalAlign=middle;whiteSpace=wrap;rounded=0;" parent="1" vertex="1">
          <mxGeometry x="2750" y="930" width="100" height="30" as="geometry" />
        </mxCell>
        <mxCell id="m1h3nS5uci0i1127hkHN-128" value="0782.013.920-54" style="text;html=1;align=center;verticalAlign=middle;whiteSpace=wrap;rounded=0;" parent="1" vertex="1">
          <mxGeometry x="2740" y="975" width="120" height="30" as="geometry" />
        </mxCell>
        <mxCell id="m1h3nS5uci0i1127hkHN-129" value="Crédito ou Débito?" style="rounded=1;whiteSpace=wrap;html=1;" parent="1" vertex="1">
          <mxGeometry x="2370" y="890" width="220" height="130" as="geometry" />
        </mxCell>
        <mxCell id="m1h3nS5uci0i1127hkHN-130" value="Crédito" style="rounded=0;whiteSpace=wrap;html=1;" parent="1" vertex="1">
          <mxGeometry x="2410" y="980" width="50" height="20" as="geometry" />
        </mxCell>
        <mxCell id="m1h3nS5uci0i1127hkHN-131" value="Débito" style="rounded=0;whiteSpace=wrap;html=1;" parent="1" vertex="1">
          <mxGeometry x="2500" y="980" width="50" height="20" as="geometry" />
        </mxCell>
        <mxCell id="m1h3nS5uci0i1127hkHN-132" value="" style="shape=flexArrow;endArrow=classic;html=1;rounded=0;" parent="1" edge="1">
          <mxGeometry width="50" height="50" relative="1" as="geometry">
            <mxPoint x="2840" y="1219.5" as="sourcePoint" />
            <mxPoint x="2780" y="1219.5" as="targetPoint" />
            <Array as="points">
              <mxPoint x="2800" y="1219.5" />
            </Array>
          </mxGeometry>
        </mxCell>
        <mxCell id="m1h3nS5uci0i1127hkHN-133" value="" style="shape=flexArrow;endArrow=classic;html=1;rounded=0;" parent="1" edge="1">
          <mxGeometry width="50" height="50" relative="1" as="geometry">
            <mxPoint x="2510" y="1219.5" as="sourcePoint" />
            <mxPoint x="2450" y="1219.5" as="targetPoint" />
            <Array as="points">
              <mxPoint x="2470" y="1219.5" />
            </Array>
          </mxGeometry>
        </mxCell>
        <mxCell id="m1h3nS5uci0i1127hkHN-134" value="Deseja continuar?" style="rounded=1;whiteSpace=wrap;html=1;" parent="1" vertex="1">
          <mxGeometry x="1057.5" y="910" width="285" height="140" as="geometry" />
        </mxCell>
        <mxCell id="m1h3nS5uci0i1127hkHN-135" value="Sim" style="rounded=0;whiteSpace=wrap;html=1;" parent="1" vertex="1">
          <mxGeometry x="1135" y="1000" width="50" height="20" as="geometry" />
        </mxCell>
        <mxCell id="m1h3nS5uci0i1127hkHN-136" value="Não" style="rounded=0;whiteSpace=wrap;html=1;" parent="1" vertex="1">
          <mxGeometry x="1220" y="1000" width="50" height="20" as="geometry" />
        </mxCell>
        <mxCell id="m1h3nS5uci0i1127hkHN-163" value="Deseja continuar?" style="rounded=1;whiteSpace=wrap;html=1;" parent="1" vertex="1">
          <mxGeometry x="1387.5" y="910" width="285" height="140" as="geometry" />
        </mxCell>
        <mxCell id="m1h3nS5uci0i1127hkHN-164" value="Não" style="rounded=0;whiteSpace=wrap;html=1;" parent="1" vertex="1">
          <mxGeometry x="1550" y="1000" width="50" height="20" as="geometry" />
        </mxCell>
        <mxCell id="m1h3nS5uci0i1127hkHN-165" value="Sim" style="rounded=0;whiteSpace=wrap;html=1;" parent="1" vertex="1">
          <mxGeometry x="1450" y="1000" width="50" height="20" as="geometry" />
        </mxCell>
        <mxCell id="m1h3nS5uci0i1127hkHN-168" value="Deseja continuar?" style="rounded=1;whiteSpace=wrap;html=1;" parent="1" vertex="1">
          <mxGeometry x="1697.5" y="920" width="285" height="140" as="geometry" />
        </mxCell>
        <mxCell id="m1h3nS5uci0i1127hkHN-169" value="Não" style="rounded=0;whiteSpace=wrap;html=1;" parent="1" vertex="1">
          <mxGeometry x="1865" y="1005" width="50" height="20" as="geometry" />
        </mxCell>
        <mxCell id="m1h3nS5uci0i1127hkHN-170" value="Sim" style="rounded=0;whiteSpace=wrap;html=1;" parent="1" vertex="1">
          <mxGeometry x="1760" y="1005" width="50" height="20" as="geometry" />
        </mxCell>
        <mxCell id="m1h3nS5uci0i1127hkHN-171" value="Deseja continuar?" style="rounded=1;whiteSpace=wrap;html=1;" parent="1" vertex="1">
          <mxGeometry x="2027.5" y="920" width="285" height="140" as="geometry" />
        </mxCell>
        <mxCell id="m1h3nS5uci0i1127hkHN-172" value="Sim" style="rounded=0;whiteSpace=wrap;html=1;" parent="1" vertex="1">
          <mxGeometry x="2090" y="1010" width="50" height="20" as="geometry" />
        </mxCell>
        <mxCell id="m1h3nS5uci0i1127hkHN-173" value="Não" style="rounded=0;whiteSpace=wrap;html=1;" parent="1" vertex="1">
          <mxGeometry x="2190" y="1010" width="50" height="20" as="geometry" />
        </mxCell>
        <mxCell id="m1h3nS5uci0i1127hkHN-174" value="Deseja continuar?" style="rounded=1;whiteSpace=wrap;html=1;" parent="1" vertex="1">
          <mxGeometry x="2347.5" y="920" width="285" height="140" as="geometry" />
        </mxCell>
        <mxCell id="m1h3nS5uci0i1127hkHN-175" value="Não" style="rounded=0;whiteSpace=wrap;html=1;" parent="1" vertex="1">
          <mxGeometry x="2510" y="1005" width="50" height="20" as="geometry" />
        </mxCell>
        <mxCell id="m1h3nS5uci0i1127hkHN-176" value="Sim" style="rounded=0;whiteSpace=wrap;html=1;" parent="1" vertex="1">
          <mxGeometry x="2420" y="1005" width="50" height="20" as="geometry" />
        </mxCell>
        <mxCell id="m1h3nS5uci0i1127hkHN-178" value="Deseja continuar?" style="rounded=1;whiteSpace=wrap;html=1;" parent="1" vertex="1">
          <mxGeometry x="2667.5" y="920" width="285" height="140" as="geometry" />
        </mxCell>
        <mxCell id="m1h3nS5uci0i1127hkHN-179" value="Não" style="rounded=0;whiteSpace=wrap;html=1;" parent="1" vertex="1">
          <mxGeometry x="2830" y="1005" width="50" height="20" as="geometry" />
        </mxCell>
        <mxCell id="m1h3nS5uci0i1127hkHN-180" value="Sim" style="rounded=0;whiteSpace=wrap;html=1;" parent="1" vertex="1">
          <mxGeometry x="2730" y="1005" width="50" height="20" as="geometry" />
        </mxCell>
      </root>
    </mxGraphModel>
  </diagram>
</mxfile>
